<svg width="757" height="184" viewBox="0 0 757 184" fill="none" xmlns="http://www.w3.org/2000/svg">
<g filter="url(#filter0_i_58_362)">
<path d="M141.044 110C140.644 126.8 139.844 143.4 138.644 159.2C137.444 175 129.844 182.8 118.444 182.8C106.244 182.8 97.8438 173.6 99.6438 156C103.244 113.8 103.444 71.4 99.8438 31C98.0438 11.4 106.244 2.39999 118.444 2.39999C129.844 2.39999 137.444 10.2 138.644 26C139.444 36 140.044 46.2 140.444 56.6L148.444 57.2C148.044 47.8 147.244 38.6 146.444 29.4C144.644 9.59999 152.844 0.199994 165.244 0.199994C176.244 0.199994 184.044 8.2 185.444 24.6C188.644 67.8 188.644 116.6 185.444 160C184.044 176 176.244 184 165.244 184C152.844 184 144.444 174.8 146.244 156.8C147.644 141 148.644 125.2 149.044 109.4L141.044 110ZM51.2438 176.8C31.8438 175 18.8438 157 20.2438 129C21.8438 97.8 45.0438 69.6 67.0438 54.8C70.2438 52.8 67.0438 46.6 64.4438 49C55.2438 57.2 43.0438 63.6 33.8438 64.6C19.6438 66.6 5.24375 57.6 2.84375 43.4C0.24375 27.4 8.24375 17.6 22.2438 12.2C33.8438 7.79999 43.0438 6.4 57.2438 6.4C80.0438 6.4 90.2438 21.2 93.6438 43.6C97.6438 71.8 96.8438 110.8 91.2438 139.8C86.6438 162.4 73.8438 178.6 51.2438 176.8ZM233.483 54.2C218.883 54.2 205.683 49.8 204.083 35C202.483 18.8 210.683 9.99999 234.083 6.99999C259.083 3.8 296.283 3.39999 334.083 5.79999C357.483 6.99999 369.683 21 369.683 37.4C369.683 57.4 359.683 71 345.283 73.6C329.083 76.2 313.083 71.4 307.083 57.8C303.083 48.4 303.883 36.4 311.883 29C315.083 26 312.483 23 309.483 25.2C288.083 40.8 263.483 54.2 233.483 54.2ZM237.883 79.2C237.883 79 237.883 78.8 237.883 78.6C237.883 56.2 245.483 55.2 271.883 55.2C298.083 55.2 305.683 56.2 305.683 78.6C305.683 79 305.683 79.6 305.683 80C323.683 79.8 341.483 79.2 357.683 78.2C369.283 77.4 376.283 83.8 376.283 91.2C376.283 100.2 369.283 104.6 357.483 105.4C313.283 108.6 258.283 108.6 215.483 105.4C204.083 104.4 197.083 100.2 197.083 91.2C197.083 83.8 204.083 77.4 215.483 78.2C222.683 78.6 230.083 79 237.883 79.2ZM261.083 134.2C249.483 138 236.483 140.4 224.083 141C209.483 141.8 203.883 134.8 203.883 125.6C203.883 117 209.483 110.8 220.283 111.4C261.283 114.4 312.083 114.4 353.083 111.4C364.083 110.8 369.283 115.8 369.283 123.6C369.283 130.2 364.283 135.8 357.083 136C334.883 136.4 313.483 142.6 299.483 152.4C296.883 154.2 298.483 158.2 301.683 156.2C314.083 149 329.083 142.4 345.283 141.8C361.283 141.6 370.883 149.2 370.883 161.2C370.883 173.8 361.283 179.2 343.283 180.4C304.483 183 260.683 182.6 224.083 180.2C210.283 179.4 202.083 175.6 202.083 165.2C202.083 153.2 212.083 146.6 226.083 145.6C238.483 144.4 249.883 143 262.483 138.8C265.283 137.8 263.883 133 261.083 134.2ZM521.122 110C520.722 126.8 519.922 143.4 518.722 159.2C517.522 175 509.922 182.8 498.522 182.8C486.322 182.8 477.922 173.6 479.722 156C483.322 113.8 483.522 71.4 479.922 31C478.122 11.4 486.322 2.39999 498.522 2.39999C509.922 2.39999 517.522 10.2 518.722 26C519.522 36 520.122 46.2 520.522 56.6L528.522 57.2C528.122 47.8 527.322 38.6 526.522 29.4C524.722 9.59999 532.922 0.199994 545.322 0.199994C556.322 0.199994 564.122 8.2 565.522 24.6C568.722 67.8 568.722 116.6 565.522 160C564.122 176 556.322 184 545.322 184C532.922 184 524.522 174.8 526.322 156.8C527.722 141 528.722 125.2 529.122 109.4L521.122 110ZM431.322 176.8C411.922 175 398.922 157 400.322 129C401.922 97.8 425.122 69.6 447.122 54.8C450.322 52.8 447.122 46.6 444.522 49C435.322 57.2 423.122 63.6 413.922 64.6C399.722 66.6 385.322 57.6 382.922 43.4C380.322 27.4 388.322 17.6 402.322 12.2C413.922 7.79999 423.122 6.4 437.322 6.4C460.122 6.4 470.322 21.2 473.722 43.6C477.722 71.8 476.922 110.8 471.322 139.8C466.722 162.4 453.922 178.6 431.322 176.8ZM613.561 54.2C598.961 54.2 585.761 49.8 584.161 35C582.561 18.8 590.761 9.99999 614.161 6.99999C639.161 3.8 676.361 3.39999 714.161 5.79999C737.561 6.99999 749.761 21 749.761 37.4C749.761 57.4 739.761 71 725.361 73.6C709.161 76.2 693.161 71.4 687.161 57.8C683.161 48.4 683.961 36.4 691.961 29C695.161 26 692.561 23 689.561 25.2C668.161 40.8 643.561 54.2 613.561 54.2ZM617.961 79.2C617.961 79 617.961 78.8 617.961 78.6C617.961 56.2 625.561 55.2 651.961 55.2C678.161 55.2 685.761 56.2 685.761 78.6C685.761 79 685.761 79.6 685.761 80C703.761 79.8 721.561 79.2 737.761 78.2C749.361 77.4 756.361 83.8 756.361 91.2C756.361 100.2 749.361 104.6 737.561 105.4C693.361 108.6 638.361 108.6 595.561 105.4C584.161 104.4 577.161 100.2 577.161 91.2C577.161 83.8 584.161 77.4 595.561 78.2C602.761 78.6 610.161 79 617.961 79.2ZM641.161 134.2C629.561 138 616.561 140.4 604.161 141C589.561 141.8 583.961 134.8 583.961 125.6C583.961 117 589.561 110.8 600.361 111.4C641.361 114.4 692.161 114.4 733.161 111.4C744.161 110.8 749.361 115.8 749.361 123.6C749.361 130.2 744.361 135.8 737.161 136C714.961 136.4 693.561 142.6 679.561 152.4C676.961 154.2 678.561 158.2 681.761 156.2C694.161 149 709.161 142.4 725.361 141.8C741.361 141.6 750.961 149.2 750.961 161.2C750.961 173.8 741.361 179.2 723.361 180.4C684.561 183 640.761 182.6 604.161 180.2C590.361 179.4 582.161 175.6 582.161 165.2C582.161 153.2 592.161 146.6 606.161 145.6C618.561 144.4 629.961 143 642.561 138.8C645.361 137.8 643.961 133 641.161 134.2Z" fill="white"/>
</g>
<defs>
<filter id="filter0_i_58_362" x="0.243652" y="0.200195" width="756.117" height="187.8" filterUnits="userSpaceOnUse" color-interpolation-filters="sRGB">
<feFlood flood-opacity="0" result="BackgroundImageFix"/>
<feBlend mode="normal" in="SourceGraphic" in2="BackgroundImageFix" result="shape"/>
<feColorMatrix in="SourceAlpha" type="matrix" values="0 0 0 0 0 0 0 0 0 0 0 0 0 0 0 0 0 0 127 0" result="hardAlpha"/>
<feOffset dy="4"/>
<feGaussianBlur stdDeviation="2"/>
<feComposite in2="hardAlpha" operator="arithmetic" k2="-1" k3="1"/>
<feColorMatrix type="matrix" values="0 0 0 0 0.129412 0 0 0 0 0.419608 0 0 0 0 0.188235 0 0 0 0.5 0"/>
<feBlend mode="normal" in2="shape" result="effect1_innerShadow_58_362"/>
</filter>
</defs>
</svg>
