<svg xmlns="http://www.w3.org/2000/svg" width="390" height="390" style="width:100%;height:100%;transform:translate3d(0,0,0)"><defs><clipPath id="a"><path d="M0 0h390v390H0z"/></clipPath></defs><g clip-path="url(#a)"><g opacity=".1" style="display:block"><path fill="#221F1F" d="M198.828 369.68c0 4.384-24.401 7.937-54.5 7.937-30.1 0-54.5-3.553-54.5-7.937s24.4-7.937 54.5-7.937c30.099 0 54.5 3.553 54.5 7.937z" opacity="1"/></g><g style="display:block"><path fill="#AE8638" d="M175.137 347.696c-4.984.65-10.381.228-16.042-1.84-24.76-9.04-30.225-32.189-30.446-33.17a4.951 4.951 0 0 1 3.744-5.916 4.948 4.948 0 0 1 5.911 3.73c.195.83 4.661 18.928 24.186 26.057 18.643 6.808 31.953-11.016 32.51-11.777 1.612-2.202 4.705-2.692 6.91-1.087a4.94 4.94 0 0 1 1.106 6.895c-4.487 6.213-14.737 15.395-27.879 17.108z"/><path fill="#D11" d="M213.041 335.076c1.337-.852 3.216-1.223 4.373-3.193 1.152-1.967.562-3.791.652-5.373.344-1.548 1.41-3.142.832-5.351-.571-2.21-2.282-3.08-3.337-4.262-.851-1.336-1.225-3.216-3.193-4.37-1.97-1.157-3.79-.563-5.374-.657-1.548-.341-3.142-1.41-5.352-.833-2.205.577-3.078 2.286-4.262 3.34-1.336.85-3.217 1.224-4.37 3.194-1.155 1.966-.565 3.79-.655 5.372-.344 1.548-1.41 3.143-.832 5.349.573 2.21 2.282 3.08 3.337 4.264.853 1.336 1.224 3.218 3.192 4.372 1.968 1.155 3.793.564 5.373.653 1.55.343 3.146 1.412 5.354.834 2.206-.575 3.078-2.284 4.262-3.339z"/></g><g style="display:block"><path fill="#FFD769" d="M188.926 282.463c.162 1.85.295 3.687.395 5.502.522 9.465 1.7 17.208 1.45 23.324.076 2.503.146 20.094-11.225 49.116 0 0 12.308 11.6-17.012 9.823-27.804-1.685-4.739-25.088-18.338-40.165-13.6 15.077 9.463 38.48-18.339 40.165-29.319 1.777-17.012-9.823-17.012-9.823-11.407-29.109-11.301-46.719-11.225-49.138-.245-6.114.929-13.849 1.451-23.302.122-2.21.293-4.453.503-6.71 1.524-9.998 6.609-39.369 6.609-39.369 2.15-9.476 3.936-15.81 3.936-15.81H178.272s1.879 6.659 4.101 16.537c0 0 4.318 17.757 6.553 39.85z"/><path fill="none" stroke="#DBAF5A" stroke-linecap="round" stroke-linejoin="round" stroke-width="3" d="M188.926 282.463c.162 1.85.295 3.687.395 5.502.522 9.465 1.7 17.208 1.45 23.324.076 2.503.146 20.094-11.225 49.116 0 0 12.308 11.6-17.012 9.823-27.804-1.685-4.739-25.088-18.338-40.165-13.6 15.077 9.463 38.48-18.339 40.165-29.319 1.777-17.012-9.823-17.012-9.823-11.407-29.109-11.301-46.719-11.225-49.138-.245-6.114.929-13.849 1.451-23.302.122-2.21.293-4.453.503-6.71 1.524-9.998 6.609-39.369 6.609-39.369 2.15-9.476 3.936-15.81 3.936-15.81H178.272s1.879 6.659 4.101 16.537c0 0 4.318 17.757 6.553 39.85z"/></g><g style="display:block"><path fill="#FFD769" d="M197.464 264.866c-1.335 8.047-7.925 13.658-14.718 12.53-6.793-1.128-11.217-8.567-9.88-16.614 1.335-8.046 7.925-13.655 14.718-12.527 6.793 1.128 11.216 8.565 9.88 16.611z"/><path fill="#FFD769" d="M194.322 242.597c15.298 9.3 28.013 23.798 36.948 41.485 12.046 23.846-15.556 40.031-28.312 21.042-5.147-7.85-12.73-17.826-17.922-26.28"/><path fill="none" stroke="#DBAF5A" stroke-linecap="round" stroke-linejoin="round" stroke-width="3" d="M194.322 242.597c15.298 9.3 28.013 23.798 36.948 41.485 12.046 23.846-15.556 40.031-28.312 21.042-5.147-7.85-12.73-17.826-17.922-26.28"/><path fill="#C99655" d="M232.684 270.564a19.8 19.8 0 0 1 4.541 11.706c.04.81.875 1.417 1.648 1.336.844-.088 1.377-.837 1.336-1.648-.237-4.77-2.046-9.455-5.084-13.138-.516-.625-1.402-.842-2.094-.348-.624.447-.864 1.465-.347 2.092zM236.631 263.114a13.906 13.906 0 0 1 1.49 2.087c.038.067.075.136.115.202.098.172-.018-.028-.048-.09.065.14.144.275.212.415a13.678 13.678 0 0 1 .95 2.582c.055.222.007.07-.014-.061.023.153.066.304.096.457.077.392.217.733.533.996.286.238.74.395 1.116.339.744-.112 1.498-.825 1.335-1.649-.507-2.58-1.62-5.026-3.345-7.023-.266-.308-.56-.538-.974-.607-.364-.06-.824.03-1.118.26-.593.463-.896 1.458-.348 2.092z"/></g><g style="display:block"><path fill="#FFD769" d="M115.484 265.717c-1.254 8.69-6.838 15.078-12.473 14.265-5.635-.812-9.188-8.517-7.934-17.209 1.253-8.69 6.839-15.078 12.473-14.265 5.636.813 9.187 8.518 7.934 17.209z"/><path fill="#FFD769" d="M101.724 279.587c-17.672-2.866-36.757-12.098-51.687-25.126-20.13-17.567-.639-42.943 18.322-30.144 12.316 8.515 35.698 24.175 42.123 25.922"/><path fill="none" stroke="#DBAF5A" stroke-linecap="round" stroke-linejoin="round" stroke-width="3" d="M101.724 279.587c-17.672-2.866-36.757-12.098-51.687-25.126-20.13-17.567-.639-42.943 18.322-30.144 12.316 8.515 35.698 24.175 42.123 25.922"/><path fill="#C99655" d="M33.19 233.89c-3.398 6.426-2.429 14.511 2.298 20.006 1.259 1.463 3.354-.685 2.1-2.142-3.82-4.442-4.522-11.213-1.794-16.375.902-1.706-1.7-3.2-2.604-1.488zM24.365 237.966c-.574 3.072-.403 6.204.427 9.21.21.758 1.233 1.175 1.932.878.803-.343 1.103-1.12.879-1.933a19.849 19.849 0 0 1-.197-.761 1.28 1.28 0 0 0-.012-.07c-.06-.308-.121-.618-.17-.928a18.619 18.619 0 0 1-.205-3.408c-.006.096-.002.057.006-.113l.022-.316c.053-.68.145-1.355.27-2.026.144-.771-.41-1.636-1.208-1.743-.81-.109-1.59.383-1.744 1.21z"/></g><g style="display:block"><path fill="#D11" d="M244.603 215.034c7.163-10.413 19.812-19.01 22.166-37.053 2.35-18.047-7.672-29.595-11.927-41.496-2.297-12.428.57-27.453-10.527-41.875-11.098-14.424-26.354-15.503-37.777-20.912-10.415-7.164-19.009-19.812-37.053-22.164-18.048-2.353-29.599 7.675-41.502 11.928-12.427 2.298-27.448-.57-41.87 10.527C71.688 85.087 70.61 100.344 65.2 111.771c-7.16 10.41-19.81 19.003-22.162 37.05-2.352 18.045 7.674 29.597 11.928 41.501 2.297 12.426-.568 27.449 10.528 41.867 11.095 14.423 26.35 15.501 37.775 20.91 10.414 7.164 19.008 19.812 37.054 22.164 18.044 2.352 29.593-7.67 41.496-11.925 12.428-2.3 27.453.569 41.875-10.527 14.423-11.096 15.5-26.352 20.909-37.777z"/><path fill="none" stroke="#BB0F0F" stroke-linecap="round" stroke-linejoin="round" stroke-width="3" d="M244.603 215.034c7.163-10.413 19.812-19.01 22.166-37.053 2.35-18.047-7.672-29.595-11.927-41.496-2.297-12.428.57-27.453-10.527-41.875-11.098-14.424-26.354-15.503-37.777-20.912-10.415-7.164-19.009-19.812-37.053-22.164-18.048-2.353-29.599 7.675-41.502 11.928-12.427 2.298-27.448-.57-41.87 10.527C71.688 85.087 70.61 100.344 65.2 111.771c-7.16 10.41-19.81 19.003-22.162 37.05-2.352 18.045 7.674 29.597 11.928 41.501 2.297 12.426-.568 27.449 10.528 41.867 11.095 14.423 26.35 15.501 37.775 20.91 10.414 7.164 19.008 19.812 37.054 22.164 18.044 2.352 29.593-7.67 41.496-11.925 12.428-2.3 27.453.569 41.875-10.527 14.423-11.096 15.5-26.352 20.909-37.777z"/><path fill="#FFD769" d="M145.253 237.442c-43.168-5.627-77.868-27.853-71.61-75.855 6.256-48.002 47.724-77.708 90.893-72.081 43.171 5.627 75.635 44.97 69.378 92.972-6.256 48.002-45.49 60.591-88.66 54.964z"/><path fill="#FFF" d="M168.256 169.974c-5.869-.765-11.378 1.944-14.494 6.525-1.837-5.227-6.468-9.257-12.336-10.022-8.305-1.082-15.912 4.77-16.995 13.075-1.082 8.302 4.77 15.91 13.075 16.993 5.869.765 11.378-1.945 14.493-6.526 1.838 5.227 6.47 9.258 12.338 10.023 8.302 1.082 15.91-4.771 16.993-13.073 1.082-8.305-4.772-15.912-13.074-16.995z"/><path fill="#221F1F" d="M125.633 157.358a5.996 5.996 0 0 1-6.72 5.171 5.996 5.996 0 1 1 1.55-11.893 5.997 5.997 0 0 1 5.17 6.722zM196.553 166.603a5.91 5.91 0 0 1-6.624 5.094 5.908 5.908 0 0 1-5.094-6.622 5.908 5.908 0 1 1 11.718 1.528z"/><path fill="#D11" d="M166.591 171.132c-.974 7.47-7.224 11.807-14.117 10.909-6.896-.9-11.823-6.694-10.85-14.163.974-7.471 7.897-16.986 14.793-16.087 6.893.898 11.148 11.87 10.174 19.34z"/><path fill="#221F1F" d="M162.64 173.898c-.362 2.77-4.855 5.975-9.799 5.33-4.946-.644-8.467-4.893-8.106-7.663.36-2.77 4.72-4.942 9.665-4.297 4.944.644 8.6 3.86 8.24 6.63z"/></g><g opacity=".1" style="display:block"><path fill="#221F1F" d="M339.259 369.679c0 2.528-10.97 4.577-24.5 4.577-13.531 0-24.5-2.049-24.5-4.577s10.969-4.578 24.5-4.578c13.53 0 24.5 2.05 24.5 4.578z" opacity="1"/></g><g style="display:block"><path fill="#963" d="M328.608 346.615s-1.669 9.484 4.965 13.717c6.634 4.234-7.551 4.811-17.352-4.113"/><path fill="#221F1F" d="M271.607 274.107s-11.919 6.458-11.919 18.295c0 11.833 9.058 17.469 15.916 15.018M352.563 274.107s11.918 6.458 11.918 18.295c0 11.833-9.058 17.469-15.916 15.018"/><path fill="#DDAB6B" d="M298.094 359.69s.7 10.203 6.931 11.119c6.231.913 5.224-3.338 4.888-7.931"/><path fill="none" stroke="#C99655" stroke-miterlimit="10" stroke-width="2" d="M298.094 359.69s.7 10.203 6.931 11.119c6.231.913 5.224-3.338 4.888-7.931"/><path fill="#DDAB6B" d="M326.304 359.69s-.701 10.203-6.933 11.119c-6.229.913-5.221-3.338-4.886-7.931"/><path fill="none" stroke="#C99655" stroke-miterlimit="10" stroke-width="2" d="M326.304 359.69s-.701 10.203-6.933 11.119c-6.229.913-5.221-3.338-4.886-7.931"/><path fill="#DDAB6B" d="M327.454 319.615c1.005-.443 2.066-.743 3.146-.948 14.304-2.724 25.897-10.307 25.897-29.474 0-27.12-19.946-39.949-44.552-39.949-24.605 0-44.552 12.829-44.552 39.949 0 16.505 7.056 23.707 18.617 27.289 0 0 3.931 1.204 6.004 1.716.674.166 1.335.384 1.975.655 1.514.643 2.96 1.487 3.9 2.572.712.824.805 2.006.337 2.991-2.846 5.994-4.973 13.06-5.845 19.277-2.003 14.265 8.265 21.718 19.694 21.794 11.531.075 21.755-7.273 19.384-21.529-1.078-6.479-3.432-13.916-6.501-20.114-.503-1.015-.35-2.272.492-3.032.544-.491 1.254-.866 2.004-1.197z"/><path fill="none" stroke="#C99655" stroke-miterlimit="10" stroke-width="2" d="M327.454 319.615c1.005-.443 2.066-.743 3.146-.948 14.304-2.724 25.897-10.307 25.897-29.474 0-27.12-19.946-39.949-44.552-39.949-24.605 0-44.552 12.829-44.552 39.949 0 16.505 7.056 23.707 18.617 27.289 0 0 3.931 1.204 6.004 1.716.674.166 1.335.384 1.975.655 1.514.643 2.96 1.487 3.9 2.572.712.824.805 2.006.337 2.991-2.846 5.994-4.973 13.06-5.845 19.277-2.003 14.265 8.265 21.718 19.694 21.794 11.531.075 21.755-7.273 19.384-21.529-1.078-6.479-3.432-13.916-6.501-20.114-.503-1.015-.35-2.272.492-3.032.544-.491 1.254-.866 2.004-1.197z"/><path fill="#FFF" d="M352.283 285.49c0 27.076-18.061 31.597-40.338 31.597-22.278 0-40.338-4.521-40.338-31.597 0-27.077 40.338-24.773 40.338-7.814 0-16.959 40.338-19.263 40.338 7.814z"/><path fill="#FFF" d="M313.02 315.81h-2.842l-15.815-.171s8.383 1.174 8.868 9.002c.481 7.746-5.774 28.079 8.517 28.079 14.289 0 7.738-20.333 8.219-28.079.486-7.828 9.406-9.002 9.406-9.002l-16.353.171z"/><path fill="#CA9957" d="M306.332 287.409c-1.636 9.918-11.48 17.736-19.23 17.747-7.801-.06-13.121-6.492-12.902-15.636-.352-9.739 6.718-18.081 15.975-18.293 9.138-.053 17.226 6.288 16.157 16.182zM317.839 287.409c1.634 9.918 11.48 17.736 19.229 17.747 7.801-.06 13.121-6.492 12.9-15.636.354-9.739-6.716-18.081-15.973-18.293-9.138-.053-17.225 6.288-16.156 16.182z"/><path fill="#221F1F" d="M301.509 287.415c.574 5.738-.805 10.575-5.945 11.09-5.14.515-7.451-3.952-8.025-9.694-.573-5.739.805-10.574 5.946-11.088 5.14-.514 7.451 3.952 8.024 9.692z"/><path fill="#FFF" d="M295.314 285.221c0 1.989-1.246 3.604-2.781 3.604-1.536 0-2.781-1.615-2.781-3.604 0-1.988 1.245-3.602 2.781-3.602 1.535 0 2.781 1.614 2.781 3.602z"/><path fill="#221F1F" d="M337.7 288.782c-.548 5.74-2.838 10.219-7.981 9.729-5.144-.492-6.542-5.323-5.995-11.063.547-5.742 2.837-10.221 7.98-9.729 5.144.491 6.543 5.321 5.996 11.063z"/><path fill="#FFF" d="M332.172 285.221c0 1.989-1.245 3.604-2.779 3.604-1.535 0-2.781-1.615-2.781-3.604 0-1.988 1.246-3.602 2.781-3.602 1.534 0 2.779 1.614 2.779 3.602z"/><path fill="#DDAB6B" d="M298.692 325.673s-3.731 6.078-5.074 13.192c-1.989 11.402 3.955 16.669 7.103 15.222 4.726-2.036 1.015-8.118 1.015-14.207"/><path fill="#C99655" d="M298.692 325.672c-1.67 3.74-3.038 7.574-3.883 11.481-.411 1.949-.665 3.91-.634 5.874-.003 1.951.268 3.894.913 5.671.619 1.758 1.683 3.434 3.149 4.282.72.424 1.503.573 2.132.31.819-.34 1.415-.819 1.732-1.575.327-.754.35-1.719.309-2.688-.051-.979-.198-1.982-.338-2.993-.269-2.019-.55-4.105-.336-6.155.226 2.043.754 3.988 1.287 5.965.257.992.506 1.994.677 3.046.155 1.049.23 2.186-.149 3.364a4.177 4.177 0 0 1-.973 1.601c-.44.456-.982.782-1.5 1.026-1.267.598-2.706.31-3.743-.25-2.146-1.174-3.346-3.229-4.124-5.254-1.433-4.179-1.097-8.599.066-12.607a36.179 36.179 0 0 1 5.415-11.098z"/></g><path fill="#D11" d="M-5.519-5.921S-5.916 5.921 0 5.921 5.52-5.921 5.52-5.921" style="display:block" transform="translate(312.229 304.898)"/><g style="display:block"><path fill="#FFF" d="M302.561 297.573s-.434 4.511 5.103 4.293c5.537-.217 4.486-5.026 4.486-8.6"/><path fill="none" stroke="#221F1F" stroke-linecap="round" stroke-linejoin="round" stroke-width="2.03" d="M302.561 297.573s-.434 4.511 5.103 4.293c5.537-.217 4.486-5.026 4.486-8.6"/><path fill="#FFF" d="M321.845 297.573s.433 4.511-5.104 4.293c-5.537-.217-4.486-5.026-4.486-8.6"/><path fill="none" stroke="#221F1F" stroke-linecap="round" stroke-linejoin="round" stroke-width="2.03" d="M321.845 297.573s.433 4.511-5.104 4.293c-5.537-.217-4.486-5.026-4.486-8.6"/><path fill="#221F1F" d="M317.142 290.551c0 2.975-2.209 3.738-4.936 3.738-2.723 0-4.934-.763-4.934-3.738 0-2.973 2.211-2.971 4.934-2.971 2.727 0 4.936-.002 4.936 2.971z"/></g><g style="display:block"><path fill="#DDAB6B" d="M327.953 324.01c.95 2.682.515 5.283-.972 5.81-1.487.527-3.463-1.22-4.414-3.902-.951-2.683-.516-5.284.972-5.81 1.487-.53 3.464 1.218 4.414 3.902z"/><path fill="#DDAB6B" d="M327.454 329.114s8.929-3.532 13.744-9.204c5.872-7.114 5.995-15.252 3.48-17.376a4.315 4.315 0 0 0-5.465-.09c-3.18 2.501-5.685 10.267-8.865 12.93-2.675 2.243-5.744 4.203-7.113 4.386"/><path fill="#C99655" d="M327.453 329.114c2.433-1.278 4.784-2.672 6.99-4.251 2.196-1.575 4.296-3.303 5.956-5.327a22.545 22.545 0 0 0 3.853-6.836c.853-2.442 1.274-5.146.756-7.517-.134-.58-.345-1.126-.636-1.532-.254-.371-.707-.696-1.197-.906a3.418 3.418 0 0 0-3.073.217c-.916.581-1.761 1.628-2.488 2.72a69.606 69.606 0 0 0-2.126 3.449c-.694 1.18-1.386 2.378-2.18 3.531-.798 1.135-1.639 2.327-2.83 3.181a38.205 38.205 0 0 1-3.445 2.313c-1.191.678-2.423 1.401-3.799 1.603.669-.163 1.263-.512 1.843-.864a26.49 26.49 0 0 0 1.69-1.143 37.708 37.708 0 0 0 3.144-2.593c.956-.873 1.672-1.998 2.345-3.159.66-1.169 1.28-2.379 1.906-3.598.632-1.218 1.25-2.459 2.006-3.658.76-1.19 1.576-2.41 2.949-3.364 1.393-.925 3.258-1.078 4.808-.426.764.322 1.489.8 2.037 1.544.513.71.79 1.473.975 2.22.369 1.504.337 2.994.161 4.437-.18 1.445-.545 2.845-1.032 4.193-.995 2.694-2.512 5.146-4.388 7.286-1.962 2.104-4.253 3.743-6.658 5.132-2.43 1.343-4.941 2.517-7.567 3.348z"/><path fill="#C99655" d="M338.687 316.43a15.773 15.773 0 0 1 1.428 1.137l.25.229c.092.085.12.116.013.01.593.588 1.14 1.218 1.637 1.89.241.326.47.661.686 1.005.014.023.156.258.077.125-.09-.155.09.157.106.186a15.861 15.861 0 0 1 1.255 2.842c.248.748 1.296 1.105 1.976.77.787-.386 1.036-1.178.77-1.978-1.145-3.45-3.444-6.515-6.403-8.623-.639-.454-1.64-.374-2.1.306-.449.661-.377 1.613.305 2.1zM342.749 312.906l2.966 3.77c.233.295.686.485 1.053.503.36.016.8-.123 1.065-.378.612-.594.645-1.458.126-2.118l-2.967-3.77c-.233-.294-.686-.485-1.052-.502-.36-.017-.803.122-1.066.377-.613.594-.644 1.458-.125 2.118z"/></g></g></svg>