<svg xmlns="http://www.w3.org/2000/svg" width="491" height="311" style="width:100%;height:100%;transform:translate3d(0,0,0)"><defs><clipPath id="a"><path d="M0 0h491v311H0z"/></clipPath><clipPath id="b"><path d="M0 0h491v311H0z"/></clipPath></defs><g clip-path="url(#a)"><g clip-path="url(#b)" style="display:block" transform="translate(0 9.343)"><g opacity=".5" style="display:block"><g opacity="1"><path fill="#EA7E48" d="M185.316 138.865c-2.127-.174-4.118-.75-5.748-1.666l-.727-.389c-1.361-.72-2.9-1.534-3.721-3.048l-.12-.218c-.116-.22-.263-.494-.336-.582 0 0-.105-.018-.254-.032-1.757-.165-2.299-.583-3.238-1.936-.968-1.382-1.942-2.252-3.593-3.216-.45-.183-.908-.36-1.352-.827a2.524 2.524 0 0 1-.171-.207 1.482 1.482 0 0 1-.12.017 7.043 7.043 0 0 1-.381.021c-.307 0-.64-.043-.957-.089-.128-.02-.25-.04-.363-.048-2.746-.222-4.203-2.016-5.37-3.922l-.243-.406c-.332-.56-.515-.873-.944-1.185l-.327-.235c-.545-.39-1.162-.83-1.7-1.457a9.276 9.276 0 0 1-.755-1.039c-.228-.351-.427-.657-.662-.862a10.901 10.901 0 0 0-.424-.347c-.487-.386-.99-.784-1.41-1.733-.446-1-.64-2.05-.83-3.067-.203-1.093-.393-2.13-.867-2.815-.677-.986-1.26-1.834-1.195-3.388.056-1.408.724-1.94 1.344-2.328.162-.1.279-.174.412-.312.132-.137.155-.255-.083-1.115-.248-.903-.591-2.136.185-3.435.734-1.224 2.264-3.763 5.29-3.762.17 0 .346.008.527.026.924.085 1.657.417 2.302.71.341.153.68.314 1.057.408l.131.03c.061-.028.128-.056.201-.087.098-.041.206-.115.318-.185.416-.258.988-.61 1.74-.61 1.131.004 3.165 1.143 6.053 3.381.336.106.654.163.897.163a.666.666 0 0 0 .242-.031c.293-.144.612-.416.95-.704.525-.446 1.119-.952 1.913-1.278.851-.347 1.67-.518 2.503-.518.361 0 .72.034 1.09.093.15.024.344.07.55.12.15.035.306.081.432.094.133-.142.451-.306.897-.38.231-.037.453-.053.66-.053.43 0 .78.07 1.058.124.172.032.307.059.405.059 1.256-.33 1.855-.442 3.038-.484.437-.015.854-.27 1.496-.683.692-.446 1.477-.95 2.534-1.129 1.159-.198 2.315-.204 3.43-.21.427-.003.667-.022.917-.04.345-.023.699-.05 1.049-.05.742.001 1.336.108 1.869.34 1.462.624 2.227 1.833 2.902 2.901.332.523.646 1.02.993 1.36.795.792 2.074 1.224 3.426 1.684 2.194.744 4.68 1.59 5.538 4.25.257.798.71 1.664 1.193 2.578.645 1.226 1.312 2.497 1.612 3.825.28 1.258.234 2.46.188 3.623-.053 1.392-.1 2.595.412 3.63 1.133 2.268-1.028 6.64-2.079 7.998-1.105 1.428-2.853 2.096-4.26 2.633-.277.104-.547.21-.803.316-1.281.53-1.915 1.837-2.65 3.353-.764 1.573-1.63 3.358-3.44 4.512-1.579 1.006-3.602 1.306-5.386 1.572l-1.032.158c-1.045.18-2.136.267-3.328.266-.945 0-1.9-.055-2.885-.137z"/><path fill="none" stroke="#A84420" stroke-width="3" d="M185.316 138.865c-2.127-.174-4.118-.75-5.748-1.666l-.727-.389c-1.361-.72-2.9-1.534-3.721-3.048l-.12-.218c-.116-.22-.263-.494-.336-.582 0 0-.105-.018-.254-.032-1.757-.165-2.299-.583-3.238-1.936-.968-1.382-1.942-2.252-3.593-3.216-.45-.183-.908-.36-1.352-.827a2.524 2.524 0 0 1-.171-.207 1.482 1.482 0 0 1-.12.017 7.043 7.043 0 0 1-.381.021c-.307 0-.64-.043-.957-.089-.128-.02-.25-.04-.363-.048-2.746-.222-4.203-2.016-5.37-3.922l-.243-.406c-.332-.56-.515-.873-.944-1.185l-.327-.235c-.545-.39-1.162-.83-1.7-1.457a9.276 9.276 0 0 1-.755-1.039c-.228-.351-.427-.657-.662-.862a10.901 10.901 0 0 0-.424-.347c-.487-.386-.99-.784-1.41-1.733-.446-1-.64-2.05-.83-3.067-.203-1.093-.393-2.13-.867-2.815-.677-.986-1.26-1.834-1.195-3.388.056-1.408.724-1.94 1.344-2.328.162-.1.279-.174.412-.312.132-.137.155-.255-.083-1.115-.248-.903-.591-2.136.185-3.435.734-1.224 2.264-3.763 5.29-3.762.17 0 .346.008.527.026.924.085 1.657.417 2.302.71.341.153.68.314 1.057.408l.131.03c.061-.028.128-.056.201-.087.098-.041.206-.115.318-.185.416-.258.988-.61 1.74-.61 1.131.004 3.165 1.143 6.053 3.381.336.106.654.163.897.163a.666.666 0 0 0 .242-.031c.293-.144.612-.416.95-.704.525-.446 1.119-.952 1.913-1.278.851-.347 1.67-.518 2.503-.518.361 0 .72.034 1.09.093.15.024.344.07.55.12.15.035.306.081.432.094.133-.142.451-.306.897-.38.231-.037.453-.053.66-.053.43 0 .78.07 1.058.124.172.032.307.059.405.059 1.256-.33 1.855-.442 3.038-.484.437-.015.854-.27 1.496-.683.692-.446 1.477-.95 2.534-1.129 1.159-.198 2.315-.204 3.43-.21.427-.003.667-.022.917-.04.345-.023.699-.05 1.049-.05.742.001 1.336.108 1.869.34 1.462.624 2.227 1.833 2.902 2.901.332.523.646 1.02.993 1.36.795.792 2.074 1.224 3.426 1.684 2.194.744 4.68 1.59 5.538 4.25.257.798.71 1.664 1.193 2.578.645 1.226 1.312 2.497 1.612 3.825.28 1.258.234 2.46.188 3.623-.053 1.392-.1 2.595.412 3.63 1.133 2.268-1.028 6.64-2.079 7.998-1.105 1.428-2.853 2.096-4.26 2.633-.277.104-.547.21-.803.316-1.281.53-1.915 1.837-2.65 3.353-.764 1.573-1.63 3.358-3.44 4.512-1.579 1.006-3.602 1.306-5.386 1.572l-1.032.158c-1.045.18-2.136.267-3.328.266-.945 0-1.9-.055-2.885-.137z"/></g><path fill="#D23E0A" d="M193.105 118.819c1.004-.494 2.096-1.722 2.026-3.053-.083-1.674-1.772-1.213-2.847-2.307-2.451-2.506-1.531-9.248 2.014-10.244 1.437-.395 2.676.462 3.992.226 1.322-.237.633-.633 1.38-1.517.552-.655 1.075-.689 1.616-1.224.482-.028.993.04 1.472.197-1.831-.742-3.967-1.207-5.326-2.605-.507-.523-.895-1.194-1.299-1.853-.887-.781-1.686-1.567-2.538-1.696-.784-.117-3.821-.28-4.516.096-1.769.95-.085 2.273-.017 3.503.035.686-.978 2.517-1.792 2.731-1.168.309-3.275-1.32-4.566-.69-.816.394-1.77 2.893-1.176 3.7.586.78 2.762.394 3.79 1.23 1.14.919 1.34 2.098 1.43 3.513.124 1.927.784 4.017.63 5.931 3.304-.706 1.4 6.194 5.727 4.062z" opacity="1"/><path fill="#E4BC88" d="m203.919 101.532.043-.07c-.18-.099-.367-.196-.558-.286.186.106.36.223.515.356z" opacity="1"/><path fill="#D23E0A" d="M160.855 117.625c-.728-1.058-.91-1.672-.68-2.792.136-.656.152-1.695.251-1.641 1.112-.175 2.459.242 3.554.402.105 1.046.537 3.167 1.162 3.991.824 1.077 2.18.81 3.57.998-.095.67-.303 1.273-.337 1.98-.896.202-3.825-.345-2.062 1.39-.958.525-2.29.805-3.309 1.009-.302-2.137-.904-3.54-2.15-5.337zm29.963 20.127c1.863-.323 4.258-.51 5.86-1.553 2.044-1.34 2.665-3.838 3.818-5.805-.142-.14-.172-.27-.398-.307-.292 1.851-1.38 2.064-2.969 2.11-2.125.057-3.08-.568-3.717 1.558-1.765.563-3.798.89-5.7 1.46.692-1.98-1.706-3.124-3.29-3.486-.048-1.398 2.334-2.728 1.614-4.273-.729-1.572-2.481-.474-3.485-.445-1.036.03-2.439-.774-2.95-1.833-.81-1.679.93-3.58-.024-5.211-.728.376-3.501.366-4.289-.094-.893-.517-1.746-2.977-1.123-3.857.522-.739 3.65-.906 4.618-1.195 1.43-.425 2.883-.978 4.399-.762.71-1.134-.471-3.268-1.737-3.409-.955-.111-2.104 1.163-2.916 1.458-5.153 1.87-2.277-4.801-5.513-5.371-1.944-.344-2.785 1.53-3.003 2.914-.296 1.868-.932 1.775-2.886 1.495-2.766-.395-6.342-4.95-2.048-6.15 1.01-.281 1.921.29 2.77-.633.615-.667.412-1.618.718-2.404-.226-.02-.532-.13-.754-.116.666-1.053 1.855-.684 2.938-.985 1.275-.349 2.251-1.417 3.55-1.632.426-.902.216-1.442-.295-1.771a6.11 6.11 0 0 0-.898.293c-1.071.451-1.787 1.498-2.765 1.993-.733.369-1.788.15-2.572-.145 0 0-4.11-3.291-5.314-3.304-.483 0-.964.475-1.468.695-.714.31-.444.356-1.303.138-1.108-.285-1.969-1-3.137-1.114-2.17-.211-3.401 1.442-4.377 3.112-1.001 1.711 1.084 3.453-.3 4.932-.754.81-1.314.543-1.365 1.784-.048 1.162.348 1.715.954 2.618 1.136 1.696.956 4.27 1.822 6.267.37.863.741.979 1.472 1.63.66.592.966 1.394 1.563 2.105.52.616 1.15 1.029 1.779 1.497.809.6 1.076 1.225 1.57 2.057 1.04 1.738 2.161 3.141 4.213 3.308.43.033.964.174 1.392.125.392-.047.721-.45 1.106-.31.58.21.163.629.474.969.35.375.648.364 1.03.592 1.725 1.029 2.9 2.033 4.064 3.74.744 1.094.897 1.219 2.15 1.342 1.168.114 1.324.574 1.885 1.632.738 1.402 2.43 2.112 3.882 2.942 1.535.876 3.322 1.36 5.127 1.516 2.013.169 3.888.224 5.828-.117z" opacity="1"/></g><g opacity=".6" style="display:block"><path fill="#EA7E48" d="M385.543 165.976c-2.2-.076-4.085-1.932-4.64-4.615-.004.003-.005.003-.01.003-.069 0-.404-.188-.628-.315a10.14 10.14 0 0 1-.757-.457c-.638-.396-2.074-1.292-2.266-3.153-.041-.428-.175-.881-.3-1.341-.202-.727-.424-1.55-.441-2.391-.015-.796.15-1.508.291-2.133.145-.623.268-1.163.169-1.561-.487-1.951 1.641-4.445 2.08-4.853.87-.808 1.972-1.023 2.778-1.179l.407-.084c.359-.081.672-.501 1.152-1.18.573-.804 1.285-1.806 2.513-2.33.804-.343 1.655-.388 2.303-.388.294 0 1.376.039 1.376.039 1.233.02 2.312.284 3.293.567 1.09.29 2.162.851 3.071 1.618.72.487 1.155 1.167 1.507 1.724.17.266.346.544.48.672.545.442 1.05 1.153 1.499 1.78.182.259.448.632.607.805 2.084.669 3.354 1.826 3.784 3.45 1.895 5.098-.235 11.209-5.006 14.063a3.058 3.058 0 0 1-1.626.464c-1.06 0-1.927-.537-2.622-.973-.085-.05-.172-.103-.255-.155-.285.366-.688.811-1.317 1.048-.907.304-1.713.373-2.494.438-.407.034-.817.066-1.235.142-1 .16-1.973.318-3.033.318-.226 0-.451-.007-.68-.023z" opacity="1"/><path fill="none" stroke="#A84420" stroke-width="2" d="M385.543 165.976c-2.2-.076-4.085-1.932-4.64-4.615-.004.003-.005.003-.01.003-.069 0-.404-.188-.628-.315a10.14 10.14 0 0 1-.757-.457c-.638-.396-2.074-1.292-2.266-3.153-.041-.428-.175-.881-.3-1.341-.202-.727-.425-1.55-.442-2.391-.015-.796.15-1.508.291-2.133.145-.623.268-1.163.169-1.561-.487-1.951 1.641-4.445 2.08-4.853.87-.808 1.973-1.023 2.779-1.179l.406-.084c.359-.081.673-.501 1.153-1.18.573-.804 1.285-1.806 2.513-2.33.804-.343 1.654-.388 2.302-.388.294 0 1.377.039 1.377.039 1.233.02 2.312.284 3.293.567 1.09.29 2.162.851 3.071 1.618.72.487 1.154 1.167 1.506 1.724.17.266.347.544.48.672.546.442 1.051 1.153 1.5 1.78.182.259.448.632.607.805 2.084.669 3.354 1.826 3.784 3.45 1.895 5.098-.236 11.209-5.007 14.063a3.054 3.054 0 0 1-1.625.464c-1.06 0-1.927-.537-2.622-.973-.085-.05-.173-.103-.256-.155-.285.366-.687.811-1.316 1.048-.907.304-1.713.373-2.494.438-.407.034-.817.066-1.235.142-1 .16-1.974.318-3.034.318-.226 0-.45-.007-.679-.023z" opacity="1"/><path fill="#C7481C" d="M383.91 163.008c.688.534 1.767 1.436 2.55.73.66-.562.155-1.716.705-2.484.648-.823 1.533.19 2.295.154.602-.077 1.242-1.157.977-1.401-.953-.897-1.338-1.958-1.44-3.07-.1-1.108.083-2.265.276-3.371-1.604.115.01-3.176-2.285-2.467-.62.33-1.614.89-1.208 1.51.463.722 1.128 1.334 1.29 2.22.145 1.558-.233 3.468-1.909 4.08-1 .3-1.84-.867-2.536-.477-.54.432-1.322 1.132-2.127.732" opacity="1"/><path fill="#C7481C" d="M401.5 155.754c-.406.47-1.126.156-1.643.024.31-.974.41-1.91.217-2.554-.202-.642-.693-1.01-1.574-.845.365-1.08.975-1.513 1.816-1.271.199-1.19 1.252-.975 2.164-1.103-.295 1.102-.292 1.899-.062 2.99.326 1.015-.39 2.186-.919 2.76zm-16.784-14.268c-.42.547-.785 1.152-1.213 1.67.063.1.066.183.186.227.362-1.056.985-1.059 1.87-.909.654.165 1.298.558 1.71.087 1.04-1.065 2.645-.387 3.86-.713-.025.091-.165.245-.186.34.284 1.362 2.122 2.214.525 3.397-.39.485-.633.952.092 1.218.463.187 1.138.218 1.695.383.552.167.987.47.968 1.204-.046.87-1.261 1.888-.552 2.395.616.481 2.437.04 1.948 1.468-.538 1.608-2.322 1.965-3.834 2.007-.95.011-1.743.855-1.072 1.843.184.35.619.48.957.286.646-.296 1.762-1.638 2.297-.494.347.793-.446 1.64-.102 2.435.37.702 1.218.361 1.565-.221.235-.518.437-1.175.74-1.685.306-.51.715-.882 1.358-.839.893.17 1.339 1.288 1.09 2.2-.336.877-1.159 1.32-1.891 1.807-.731.484-1.37 1.006-1.324 2.052.086.023.111-.066.198-.044-.052.184-.014.388-.233.523-.593.27-1.338.587-1.884 1.043-.546.45-.89 1.037-.688 1.836.403-.275.678-.684.979-1.049.36-.423.913-1.045 1.207-.759 1.04 1.004 2.194 1.941 3.657 1.395 3.333-1.172 4.064-4.888 5.057-7.948.211-.66.416-1.297.638-1.873.432-1.249-.027-2.664-.878-3.799-.341-.465-.737-.904-1.17-1.317-.862-.83-1.861-1.57-2.801-2.245-.625-.481-.974-1.277-1.43-2.005-.06-.116-.462-.04-.522-.159-1.416-2.388-3.377-4.85-6.244-4.964a9.767 9.767 0 0 0-1.619-.207c-1.704-.06-3.957-.438-4.954 1.414z" opacity="1"/></g><g opacity=".7" style="display:block"><path fill="#6F4A4A" d="M386.92 119.05c-2.43 3.437-14.377 16.213-32.879 3.2-17.76-12.489-11.217-27.475-8.041-31.975s14.652-1.332 25.949 6.61c11.298 7.947 18.145 17.664 14.97 22.165z" opacity="1"/><path fill="none" stroke="#442323" stroke-linecap="round" stroke-linejoin="round" stroke-width="3" d="M386.92 119.05c-2.43 3.437-14.377 16.213-32.879 3.2-17.76-12.489-11.217-27.475-8.041-31.975s14.652-1.333 25.949 6.61c11.298 7.946 18.145 17.664 14.97 22.165z" opacity="1"/><path fill="#6F4A4A" d="M423.112 103.325c-5.345 7.6-30.883 36.377-64.385 12.726-32.158-22.704-16.693-55.088-9.702-65.033 6.995-9.944 28.675-5.479 49.133 8.968 20.456 14.442 31.947 33.394 24.954 43.339z" opacity="1"/><path fill="none" stroke="#442323" stroke-linecap="round" stroke-linejoin="round" stroke-width="3" d="M423.112 103.325c-5.345 7.6-30.883 36.377-64.385 12.726-32.158-22.704-16.693-55.088-9.702-65.033 6.995-9.944 28.675-5.479 49.133 8.968 20.456 14.442 31.947 33.394 24.954 43.339z" opacity="1"/><path fill="#6F4A4A" d="M423.27 102.945c-6.934 9.806-28.593 5.287-49.085-9.097-20.487-14.381-32.045-33.184-25.11-42.99 6.936-9.805 28.599-5.288 49.086 9.098 20.488 14.381 32.045 33.184 25.11 42.99z" opacity="1"/><path fill="none" stroke="#442323" stroke-linecap="round" stroke-linejoin="round" stroke-width="2.171" d="M423.272 102.945c-6.935 9.806-28.594 5.288-49.086-9.097-20.487-14.38-32.045-33.184-25.11-42.99 6.936-9.805 28.599-5.288 49.086 9.098 20.488 14.381 32.045 33.184 25.11 42.99z" opacity="1"/><path fill="#FFE185" d="M414.342 106.102c-4.568 6.518-22.53.905-40.58-11.878-18.051-12.78-29.354-27.89-24.783-34.406 4.568-6.516 19.903-7.126 42.625 8.962 22.722 16.091 27.31 30.807 22.738 37.322z" opacity="1"/><path fill="none" stroke="#B16B4D" stroke-linecap="round" stroke-linejoin="round" stroke-width="1.737" d="M349.194 67.717s13.575-12.157 37.682-1.408M352.384 74.329s13.025-12.692 43.51-1.683M356.52 79.41s22.586-10.882 49.491 2.362" opacity="1"/><path fill="none" stroke="#B16B4D" stroke-linecap="round" stroke-linejoin="round" stroke-width="1.737" d="M367.396 76.197s5.378 7.134 4.904 17.075M376.568 75.228s5.732 13.26 1.837 22.169M384.428 76.492s6.88 12.067 2.44 25.23" opacity="1"/><path fill="none" stroke="#B16B4D" stroke-linecap="round" stroke-linejoin="round" stroke-width="1.737" d="M394.018 77.26s.628 6.238-5.7 13.635M402.193 80.037s.034 8.55-12.95 18.321M392.36 104.587s10.222-3.059 15.85-20.32M400.593 99.518s2.464 2.312 3.224 9.082" opacity="1"/><path fill="none" stroke="#B16B4D" stroke-linecap="round" stroke-linejoin="round" stroke-width="1.737" d="M405.251 92.931s5.336 8.98 5.524 15.666" opacity="1"/><path fill="none" stroke="#442323" stroke-linecap="round" stroke-linejoin="round" stroke-width="3" d="M414.342 106.102c-4.568 6.518-22.53.905-40.58-11.878-18.051-12.78-29.354-27.89-24.783-34.406 4.568-6.516 19.903-7.126 42.625 8.962 22.722 16.091 27.31 30.807 22.738 37.322z" opacity="1"/><g opacity="1"><path fill="#A1CC44" d="M390.92 73.146c.053 2.53-4.19 3.494-9.438 3.662-5.26.166-9.531-.526-9.587-3.058-.053-2.53 4.19-3.495 9.443-3.662 5.257-.167 9.529.527 9.582 3.058z"/><path fill="none" stroke="#8BA825" stroke-linecap="round" stroke-linejoin="round" stroke-width="2" d="M390.92 73.146c.053 2.53-4.19 3.494-9.438 3.662-5.26.166-9.531-.526-9.587-3.058-.053-2.53 4.19-3.495 9.443-3.662 5.257-.167 9.529.527 9.582 3.058z"/></g><g opacity="1"><path fill="#DF523A" d="M398.385 83.084c-.605 2.341-5.02 1.944-10.215.509-5.2-1.438-9.215-3.37-8.614-5.716.606-2.343 5.016-1.945 10.217-.51 5.197 1.44 9.212 3.371 8.612 5.717z"/><path fill="none" stroke="#9F1C17" stroke-linecap="round" stroke-linejoin="round" stroke-width="2" d="M398.385 83.084c-.605 2.341-5.02 1.944-10.215.509-5.2-1.438-9.215-3.37-8.614-5.716.606-2.343 5.016-1.945 10.217-.51 5.197 1.44 9.212 3.371 8.612 5.717z"/></g></g><g style="display:block"><path fill="#F4A96C" d="M191.996 74.712c-8.032-2.006-10.023-3.716-10.494-4.557-1.024-1.784-4.336-7.883-3.533-10.847.724-2.655 5.392-6.416 25.828-16.148 15.494-7.377 25.5-10.751 30.592-10.311.408.035.785.094 1.132.175 5.069 1.183 10.652 10.837 10.664 14.385.015 4.424-13.488 17.086-26.116 23.037-9.586 4.52-15.368 6.009-21.333 5.494-1.928-.167-4.005-.546-6.74-1.228z"/><path fill="none" stroke="#9C4129" stroke-width="3" d="M191.996 74.712c-8.032-2.006-10.023-3.716-10.494-4.557-1.024-1.784-4.336-7.883-3.533-10.847.724-2.655 5.392-6.416 25.828-16.148 15.494-7.377 25.5-10.751 30.592-10.311.408.035.785.094 1.132.175 5.069 1.183 10.652 10.837 10.664 14.385.015 4.424-13.488 17.086-26.116 23.037-9.586 4.52-15.368 6.009-21.333 5.494-1.928-.167-4.005-.546-6.74-1.228z"/><path fill="#FFD593" d="M224.857 38.1s-5.406 1.322-20.1 8.25c-14.691 6.93-15.7 8.383-15.7 8.383-3.49 1.816-1.794 6.028 1.157 6.338 4.385.463 7.526-2.125 11.584-.046 2.674 1.368 3.497 2.182 7.466.522 3.05-1.278 4.269-3.252 6.869-5.286 4.547-3.554 12.14-4.005 15.275-9.15 3.143-5.16-1.478-9.109-6.55-9.01z"/><path fill="#C45539" d="M244.798 47.256c.406-1.979-1.05-6.023-3.994-8.835.722 1.883 1.024 3.468.753 5.157-5.965 9.196-10.72 5.46-23.796 16.188-5.33 3.804-10.294 5.31-14.104 6.387-3.34.985-5.745.622-8.144-.011-1.363-.252-2.463-1.247-4.342-1.88-1.877-.626-3.656-.461-5.47-.583-2.95-.185-5.426-.793-6.257-4.39l-.219.042a2.705 2.705 0 0 0-.332.698c-.71 2.629 3.402 9.806 3.402 9.806s.922 1.703 9.336 3.867c8.875 2.166 14.034 2.129 27.352-4.22 13.429-6.36 25.42-18.788 25.815-22.226z"/><path fill="#FFF" d="M195.42 54.072c-.025-.888-.811-1.711-1.713-1.631-1.947.165-3.29 1.657-4.285 3.252-.487.782-.083 1.877.668 2.293.837.464 1.764.09 2.25-.686.25-.405.538-.754.896-1.115.143-.142.212-.176.43-.313-.196.123.49-.076.148-.05.902-.073 1.634-.794 1.606-1.75zM188.945 59.042l-.158.005c-1.226.05-1.168 2.023.056 1.977l.162-.008c1.225-.044 1.165-2.02-.06-1.974zM225.624 41.133l-.16.004c-1.225.051-1.167 2.025.055 1.977l.16-.008c1.229-.044 1.17-2.02-.055-1.973zM222.412 47.54c-1.856 3.403-5.422 5.462-8.765 7.146-2.474 1.248-1.285 4.432 1.155 3.192 4.49-2.281 8.486-5.134 11.02-9.627 1.353-2.397-2.121-3.074-3.41-.712z"/></g><g style="display:block"><path fill="#FFF" d="M457.87 250.548c6.539-4.275 10.797-10.884 9.145-19.782-1.95-10.449-9.23-18.264-13.151-27.791-2.918-7.094-6.243-14.504-14.313-16.81-9.974-2.847-18.307 6.827-22.99 14.24-6.713 10.617-10.404 27.771-4.492 39.33 5.996 11.72 20.718 18.373 33.232 15.808 4.48-.92 8.888-2.586 12.57-4.995z"/><path fill="none" stroke="#D5C6C6" stroke-width="3" d="M457.87 250.548c6.539-4.275 10.796-10.883 9.144-19.781-1.95-10.449-9.23-18.264-13.15-27.791-2.918-7.094-6.243-14.505-14.313-16.81-9.974-2.848-18.308 6.825-22.991 14.239-6.713 10.617-10.404 27.772-4.492 39.331 5.996 11.72 20.719 18.372 33.233 15.807 4.48-.92 8.888-2.586 12.57-4.995z"/><path fill="#FFD769" d="M441.001 213.208c5.464 1.175 9.335 7.75 7.838 14.51-1.498 6.765-7.786 11.158-13.252 9.983-5.469-1.175-8.688-7.611-7.192-14.375 1.493-6.765 7.138-11.293 12.606-10.118z"/><path fill="none" stroke="#F8BB39" stroke-width="3" d="M441.001 213.208c5.464 1.175 9.335 7.75 7.838 14.51-1.498 6.765-7.786 11.158-13.252 9.983-5.469-1.175-8.688-7.611-7.192-14.375 1.493-6.765 7.138-11.293 12.606-10.118z"/><path fill="#FFF" d="M439.88 218.27c.08-.151.181-.297.313-.429.754-.76 2.024-.825 2.87-.136.231.188 2.27 1.932 2.324 4.768.022 1.052-.885 1.904-2.02 1.906-1.14.003-2.08-.847-2.098-1.891-.02-1.171-.891-1.94-.93-1.973-.68-.594-.85-1.512-.46-2.245zM443.214 230.2a2.46 2.46 0 0 0 1.673-2.757 2.424 2.424 0 0 0-.077-.355l-.002-.006c-.003-.004-.002-.009-.005-.009a2.43 2.43 0 0 0-.173-.403l-.025-.04c-.028-.05-.052-.096-.084-.144-.038-.056-.076-.117-.12-.173a2.156 2.156 0 0 0-.613-.568 2.516 2.516 0 0 0-1.513-.425 2.49 2.49 0 0 0-1.696.797c-.118.174-.243.35-.368.524a2.442 2.442 0 0 0-.279 1.287l-.004.043c-.055.749.618 1.79 1.322 2.052.017.005.029.01.04.017.21.072.417.15.627.227.439.09.871.072 1.297-.067z"/></g><g style="display:block"><path fill="#FFE23D" d="M152.481 28.231c-.693-.769-4.349-1.101-9.315-.12-3.802.75-8.134 2.006-11.2 3.476-9.331 4.474-15.752 12.52-16.603 14.467-.46 1.046-.47 2.18-.115 3.31.337 1.077 1.02 2.153 1.886 3.085.976 1.053 2.176 1.917 3.28 2.417 1.497.674 2.798.623 3.63.135.169-.1.535-.441 1.046-1.097 1.317-1.695 4.755-6.106 12.298-9.957 4.719-2.41 8.666-2.914 11.404-3.269 2.373-.308 3.937-.687 4.742-1.46 1.026-.991 1.496-3.033 1.205-5.33-.275-2.179-1.163-4.443-2.258-5.657z"/><path fill="none" stroke="#E19F34" stroke-width="3" d="M152.481 28.231c-.693-.769-4.349-1.101-9.315-.12-3.802.75-8.134 2.006-11.2 3.476-9.331 4.474-15.752 12.52-16.603 14.467-.46 1.046-.47 2.18-.115 3.31.337 1.077 1.02 2.153 1.886 3.085.976 1.053 2.176 1.917 3.28 2.417 1.497.674 2.798.623 3.63.135.169-.1.535-.441 1.046-1.097 1.317-1.695 4.755-6.106 12.298-9.957 4.719-2.41 8.666-2.914 11.404-3.269 2.373-.308 3.937-.687 4.742-1.46 1.026-.991 1.496-3.033 1.205-5.33-.275-2.179-1.163-4.443-2.258-5.657z"/><path fill="#E8AC34" d="M123.19 53.711c.576-.33 3.788-6.053 13.54-10.904 8.26-4.109 14.27-2.835 15.93-4.395.68-.643.913-1.908.827-3.311-1.15-1.94-5.105-1.463-13.872.852C128.153 38.98 121.82 50.6 121.82 50.6l-.323 3.123c.672.207 1.275.228 1.693-.01z"/><path fill="#FFCC3A" d="M124.59 48.087c3.13-6.414 12.076-11.153 12.076-11.153-7.167 2.253-11.38 7.746-13.113 10.161a1.318 1.318 0 0 0-.403-.114c-2.112-.223-6.409-.056-6.409-.056-1.473 3.162 4.156 7.503 6.416 6.905.1-.039.201-.074.293-.112.19-.105.677-.781 1.574-1.8.412-1.257.175-2.804-.434-3.831z"/></g><g style="display:block"><path fill="#FFE23D" d="M268.026 100.493c-4.5 1.705-8.163 2.169-8.99 1.657-1.355-.835-2.718-2.614-3.458-4.44-.828-2.042-.75-3.963.096-5.059.623-.802 2.08-1.43 4.33-2.134 2.61-.817 6.378-1.984 10.499-4.913 8.56-6.085 16.981-17.957 17.758-19.048 1.02-.942 2.257-1.21 3.794-.933 1.172.21 2.511.712 3.674 1.41 1.059.635 1.963 1.434 2.528 2.294.638.974.873 2.029.62 3.09-.888 3.74-9.137 15.274-20.643 23.045-2.685 1.815-6.653 3.685-10.208 5.031z"/><path fill="none" stroke="#E19F34" stroke-width="3" d="M268.026 100.493c-4.5 1.705-8.163 2.169-8.99 1.657-1.355-.835-2.718-2.614-3.458-4.44-.828-2.042-.75-3.963.096-5.059.623-.802 2.08-1.43 4.33-2.134 2.61-.817 6.378-1.984 10.499-4.913 8.56-6.085 16.981-17.957 17.758-19.048 1.02-.942 2.257-1.21 3.794-.933 1.172.21 2.511.712 3.674 1.41 1.059.635 1.963 1.434 2.528 2.294.638.974.873 2.029.62 3.09-.888 3.74-9.137 15.274-20.643 23.045-2.685 1.815-6.653 3.685-10.208 5.031z"/><path fill="#E8AC34" d="M290.55 64.02c.745-.579-9.268 15.036-18.682 21.51-7.328 5.04-13.688 6.325-15.002 7.965-.54.676-.487 1.799-.097 2.982 1.569 1.441 5.405.301 13.626-3.298 14.461-6.33 23.536-23.519 24.326-24.816l-2.604-1.255c-.72-.054 3.738 4.048 3.376 4.328"/><path fill="#FFCC3A" d="M289.401 67.538c-.121 1.169.227 4.12 1.052 4.902-2.333 8.75-13.866 16.52-17.477 19.445 10.165-5.081 16.837-14.864 18.714-18.77.144.024.281.038.421.024 2.124-.19 6.307-1.116 6.307-1.116.74-3.018-4.495-6.48-6.584-5.552-.085.05-.394-1.187-.472-1.138-.165.125-1.215-1.09-1.87-.041l.08-.56"/></g><g style="display:block"><path fill="none" stroke="#9C251F" stroke-width="3" d="m74.13 195.19-36.373 22.646c5.477 6.44 29.146 34.223 31.29 36.001 1.035.864 3.02.856 5.396.336 2.63-.576 5.765-1.89 9.066-4 3.256-2.08 5.71-4.334 7.324-6.456 1.538-2.02 2.373-3.89 2.107-5.256-.247-1.262-15.355-35.457-18.81-43.27z"/><path fill="#B83C34" d="M77.158 205.122c-1.959-4.774-3.333-8.117-3.333-8.117l-33.339 22.31s9.016 9.803 14.958 17.248c0 0 17.11-8.112 23.358-27.255M69.29 252.137c1.22 2.077 7.53.933 13.644-3.052 6.113-3.984 9.442-9.003 8.49-11.379-.108-.572-4.114-9.082-7.88-17.877-5.035 9.946-11.85 17.87-22.064 23.437 3.964 4.654 7.135 8.303 7.81 8.871z"/><path fill="#352C2C" d="M73.97 191.947c2.506 4.002-4.186 12.864-14.943 19.798-10.756 6.932-21.506 9.305-24.013 5.306-2.505-4.003 4.184-12.867 14.943-19.8 10.756-6.93 21.507-9.306 24.013-5.304z"/><path fill="none" stroke="#000" stroke-linecap="round" stroke-linejoin="round" stroke-width="2.171" d="M73.97 191.947c2.506 4.002-4.186 12.864-14.943 19.798-10.756 6.932-21.506 9.305-24.013 5.306-2.505-4.003 4.184-12.867 14.943-19.8 10.756-6.93 21.507-9.306 24.013-5.304z"/><path fill="#221C1C" d="M71.099 197.477c1.88 3.035-3.139 9.76-11.207 15.018-8.067 5.26-16.133 7.062-18.009 4.027-1.88-3.036 3.14-9.761 11.205-15.02 8.07-5.258 16.133-7.06 18.011-4.025z"/><path fill="#FFF" d="M59.313 175.947c4.303 2.593 2.058 14.215-5.013 25.958-7.075 11.743-16.296 19.163-20.603 16.571l-8.208-4.951 25.61-42.527 8.214 4.95z"/><path fill="none" stroke="#C4C4C4" stroke-linecap="round" stroke-linejoin="round" stroke-width="1.737" d="M59.313 175.947c4.303 2.593 2.058 14.215-5.013 25.958-7.075 11.743-16.296 19.163-20.603 16.571l-8.208-4.951 25.61-42.527 8.214 4.95z"/><path fill="#FFF" d="M51.313 171.519c4.304 2.621 2.062 14.356-5.014 26.217-7.082 11.859-16.311 19.351-20.621 16.732-4.304-2.62-2.06-14.358 5.017-26.219 7.077-11.859 16.308-19.35 20.618-16.73z"/><path fill="none" stroke="#C4C4C4" stroke-linecap="round" stroke-linejoin="round" stroke-width="1.737" d="M51.313 171.519c4.304 2.621 2.062 14.356-5.014 26.217-7.082 11.859-16.311 19.351-20.621 16.732-4.304-2.62-2.06-14.358 5.017-26.219 7.077-11.859 16.308-19.35 20.618-16.73z"/><path fill="#DCDCDC" d="M30.674 205.847c1.401-.255 5.69-4.023 10.2-11.435 4.51-7.41 5.865-12.928 5.444-14.274-1.4.258-5.69 4.026-10.2 11.437-4.507 7.41-5.873 12.927-5.444 14.272zm12.913-9.815C40.063 201.826 33.021 211 29 208.6c-4.016-2.397.878-12.848 4.404-18.646 3.53-5.796 10.566-14.964 14.586-12.565 4.02 2.398-.873 12.846-4.402 18.644z"/><path fill="#352C2C" d="M39.181 193.638c-1.136 1.333-2.047 2.141-3.367.987l-16.269-14.828a3.19 3.19 0 0 1-1.09-2.286l-.948-10.014c-.072-1.762 1.28-3.248 3.021-3.32 1.74-.074 3.212 1.294 3.284 3.055l.89 8.633 15.231 13.928c1.183 1.03.342 2.095-.436 3.403a3.391 3.391 0 0 1-.316.442zM60.038 193.415c-6.184-10.9.613-52.853 17.154-52.22 17.138.659 5.71 27.852 1.692 35.602 3.406-1.558 8.848 2.64 8.896 6.225.106 7.503-12.07 11.974-17.458 13.8"/><path fill="none" stroke="#221C1C" stroke-linecap="round" stroke-linejoin="round" stroke-width="1.303" d="M60.038 193.415c-6.184-10.9.613-52.853 17.154-52.22 17.138.659 5.71 27.852 1.692 35.602 3.406-1.558 8.848 2.64 8.896 6.225.106 7.503-12.07 11.974-17.458 13.8"/><path fill="#221C1C" d="M82.39 182.985c-1.388-3.378-4.494-1.337-5.986-2.61-1.693-1.454-1.01-4.746-1.195-7.184-.279-5.13.675-9.216 1.39-14.256.277-1.98.953-5.061-.474-6.485-1.469-1.465-3.577 1.046-4.603 2.305-5.727 7.03-9.184 17.953-10.023 27.844.536 9.45 2.62 11.248 6.22 11.402 3.596.153 16.06-7.638 14.671-11.016z"/><path fill="#352C2C" d="M72.554 135.004c-.77 0-1.545-.201-2.303-.599-2.12-1.114-3.43-3.29-3.69-6.127-.32-3.487 1.062-7.188 3.362-9 1.055-.833 2.3-1.274 3.595-1.274.916 0 1.842.229 2.675.66a6.511 6.511 0 0 1 2.166 1.822c1.867 2.429 1.254 7.04-.27 10.148-1.362 2.777-3.378 4.37-5.535 4.37z"/><path fill="#221C1C" d="M74.045 117.005c-1.628 0-3.186.544-4.507 1.575-2.747 2.144-4.345 6.314-3.969 10.371.306 3.31 1.947 5.969 4.499 7.297.965.502 1.963.756 2.965.756 2.729.001 5.232-1.892 6.865-5.196 1.798-3.632 2.428-8.84.157-11.769a7.965 7.965 0 0 0-2.67-2.221 7.37 7.37 0 0 0-3.34-.813zm0 2.38c.774 0 1.544.19 2.252.551.698.356 1.34.882 1.863 1.558 2.593 3.345-.356 13.133-5.127 13.131-.592 0-1.212-.152-1.853-.486-4.764-2.478-3.883-10.782-.16-13.69a4.874 4.874 0 0 1 3.024-1.063z"/><path fill="#352C2C" d="M94.532 108.01c-.847 0-1.622-.32-2.184-.905-1.16-1.425-1.078-3.625.123-5.08.326-.399.68-.736 1.05-1.006.883-.638 1.821-.976 2.787-1.003a6.71 6.71 0 0 1 .198-.004c1.073 0 2.004.413 2.552 1.132.59.869.613 2.008.105 3.18-.412.94-1.087 1.839-1.821 2.423-.777.805-1.796 1.264-2.81 1.264z"/><path fill="#221C1C" d="M96.474 99.012c-.098 0-.196.003-.297.008-1.114.037-2.243.487-3.284 1.334a7.026 7.026 0 0 0-1.217 1.306c-1.465 1.993-1.544 4.929-.179 6.819a3.841 3.841 0 0 0 3.08 1.532c1.284 0 2.553-.62 3.513-1.705.813-.75 1.553-1.861 2.001-3.014.627-1.617.57-3.234-.152-4.437l-.071-.114c-.748-1.098-1.985-1.729-3.394-1.73zm0 2.383c.63 0 1.18.245 1.497.711.33.553.319 1.401-.027 2.301-.319.816-.877 1.68-1.49 2.204-.547.668-1.238 1.02-1.875 1.019a1.58 1.58 0 0 1-1.224-.57c-.737-1.024-.685-2.805.172-3.97.224-.306.492-.613.801-.866.592-.482 1.263-.803 1.99-.826l.156-.003z"/><path fill="#FFF" d="M62.302 157.736a1.498 1.498 0 0 0-.889-.685 1.484 1.484 0 0 0-.942.058c-.067.02-.134.055-.2.092h-.004a1.33 1.33 0 0 0-.219.159l-.02.018c-.025.02-.049.044-.072.067l-.088.092c-.112.13-.204.278-.254.43-.119.297-.142.63-.057.943.103.37.352.693.683.888.12.048.237.098.356.15.265.07.529.07.79 0 .007-.002.019-.002.025-.004.448-.062.974-.589 1.037-1.039a.063.063 0 0 0 .005-.022c.016-.132.037-.263.053-.398a1.488 1.488 0 0 0-.204-.749zM62.23 174.981a1.978 1.978 0 0 0-1.183-.911 1.975 1.975 0 0 0-1.259.075 1.28 1.28 0 0 0-.267.122l-.005.002-.006.003c-.1.06-.197.13-.288.207-.009.008-.016.017-.025.023-.034.031-.066.06-.098.092a2.64 2.64 0 0 0-.113.121v.002a1.645 1.645 0 0 0-.343.572 2.01 2.01 0 0 0-.076 1.254c.138.498.471.926.912 1.185.16.066.316.133.474.2.35.095.704.096 1.054 0l.033-.004c.597-.086 1.3-.785 1.385-1.383 0-.01.005-.023.005-.034.023-.175.05-.35.072-.525a1.962 1.962 0 0 0-.272-1.001zM77.385 111.496a.984.984 0 0 0-1.222-.417.567.567 0 0 0-.131.061h-.004l-.004.002a.852.852 0 0 0-.142.103l-.014.011-.047.048a.834.834 0 0 0-.23.345.988.988 0 0 0 .419 1.22l.235.101c.177.046.352.046.528 0l.017-.004c.298-.041.65-.39.694-.69l.002-.017c.01-.087.023-.176.035-.263a.985.985 0 0 0-.136-.5zM66.18 161.602a.769.769 0 0 0-1.057-.278h-.006a.88.88 0 0 0-.11.084.063.063 0 0 1-.012.007c-.012.01-.024.024-.036.037a1.009 1.009 0 0 0-.046.047v.002a.606.606 0 0 0-.132.224.754.754 0 0 0-.03.487.781.781 0 0 0 .354.464l.188.079a.752.752 0 0 0 .41 0c.004 0 .01 0 .014-.002.232-.032.508-.308.54-.54 0-.007.002-.009.002-.01.006-.072.02-.143.028-.208a.772.772 0 0 0-.108-.393zM70.182 151.604a.767.767 0 0 0-.954-.325c-.036.01-.068.027-.102.045l-.002.002h-.004a.803.803 0 0 0-.124.091l-.034.037c-.018.014-.032.031-.046.047a.657.657 0 0 0-.134.226.755.755 0 0 0-.028.488.788.788 0 0 0 .354.463l.186.077a.752.752 0 0 0 .41 0c.006 0 .01 0 .016-.002.232-.033.506-.307.538-.54.002-.005.002-.009.002-.013.01-.069.018-.137.03-.205a.73.73 0 0 0-.108-.39zM66.17 186.602a.77.77 0 0 0-1.056-.277h-.002l-.004.002a.605.605 0 0 0-.11.082l-.012.007c-.012.012-.026.024-.036.037a.658.658 0 0 0-.18.27.793.793 0 0 0-.028.492.785.785 0 0 0 .354.463c.064.025.124.05.188.077a.752.752 0 0 0 .41 0h.014c.232-.034.506-.31.54-.543 0-.006.002-.006.002-.01l.028-.207a.752.752 0 0 0-.108-.393z"/></g></g><path fill="#212121" d="M8.411-36.433s-25.31 13.889-25.31 39.348c0 25.455 19.233 37.576 33.797 32.307" style="display:block" transform="translate(151.398 255.908)"/><path fill="#212121" d="M-8.38-36.171S16.848-22.382 16.848 2.894c0 25.271-19.172 37.306-33.696 32.074" style="display:block" transform="rotate(-.02 737715.177 -969741.217)"/><g style="display:block"><path fill="#DDAB6B" d="M339.762 251.667c0 58.157-50.504 65.955-95.629 65.955-45.121 0-95.633-7.798-95.633-65.955 0-58.154 42.819-85.667 95.633-85.667 52.817 0 95.629 27.513 95.629 85.667z"/><path fill="none" stroke="#C38D46" stroke-width="4" d="M339.762 251.667c0 58.157-50.504 65.955-95.629 65.955-45.121 0-95.633-7.798-95.633-65.955 0-58.154 42.819-85.667 95.633-85.667 52.817 0 95.629 27.513 95.629 85.667z"/><path fill="#FFF" d="M330.843 243.735c0 58.216-38.823 67.941-86.714 67.941-47.89 0-86.71-9.725-86.71-67.941 0-58.211 86.71-53.26 86.71-16.798 0-36.462 86.714-41.413 86.714 16.798z"/><path fill="#CA9957" d="M232.529 248.067c-3.515 21.146-24.699 37.816-41.377 37.844-16.787-.125-28.231-13.842-27.76-33.339-.759-20.766 14.453-38.557 34.371-39.003 19.666-.115 37.068 13.405 34.766 34.498zM256.724 248.067c3.512 21.146 24.702 37.816 41.379 37.844 16.785-.125 28.231-13.842 27.757-33.339.762-20.766-14.451-38.557-34.373-39.003-19.664-.115-37.073 13.405-34.763 34.498z"/><path fill="#D11" d="M232.422 275.195s-.859 22.138 11.96 22.138c12.815 0 11.959-22.138 11.959-22.138"/><path fill="none" stroke="#212121" stroke-linecap="round" stroke-linejoin="round" stroke-width="3" d="M232.422 275.195s-.859 22.138 11.96 22.138c12.815 0 11.959-22.138 11.959-22.138"/><path fill="#FFF" d="M223.153 271.178s-.941 9.776 11.057 9.306c11.995-.471 9.717-10.896 9.717-18.636"/><path fill="none" stroke="#212121" stroke-linecap="round" stroke-linejoin="round" stroke-width="3" d="M223.153 271.178s-.941 9.776 11.057 9.306c11.995-.471 9.717-10.896 9.717-18.636"/><path fill="#FFF" d="M265.499 271.178s.937 9.776-11.057 9.306c-11.998-.471-9.722-10.896-9.722-18.636"/><path fill="none" stroke="#212121" stroke-linecap="round" stroke-linejoin="round" stroke-width="3" d="M265.499 271.178s.937 9.776-11.057 9.306c-11.998-.471-9.722-10.896-9.722-18.636"/><path fill="#221F1F" d="M254.536 255.827c0 6.591-4.66 8.281-10.405 8.281-5.745 0-10.407-1.69-10.407-8.281 0-6.587 4.662-6.584 10.407-6.584s10.405-.003 10.405 6.584z"/></g><g style="display:block"><path fill="#FFF" d="M168.27 321.671c-4.068 2.353-9.337.922-11.71-3.18l-36.248-62.682c-2.37-4.1-.983-9.382 3.085-11.734l33.243-19.225c4.068-2.351 9.337-.92 11.71 3.181l36.247 62.681c2.372 4.102.983 9.382-3.085 11.735l-33.243 19.224z"/><path fill="none" stroke="#B89261" stroke-width="2.4" d="M168.27 321.671c-4.068 2.353-9.337.922-11.71-3.18l-36.248-62.682c-2.37-4.1-.984-9.382 3.084-11.734l33.244-19.225c4.068-2.351 9.337-.92 11.71 3.181l36.247 62.681c2.372 4.102.982 9.382-3.086 11.735l-33.242 19.224z"/><path fill="#FFD300" d="m157.609 230-30.232 17.483c-2.73 1.58-3.662 5.122-2.07 7.874l30.523 52.782c1.59 2.752 5.126 3.712 7.856 2.135l30.233-17.483c2.73-1.578 3.66-5.122 2.069-7.875l-30.523-52.782c-1.59-2.752-5.128-3.712-7.856-2.133z"/><path fill="#E1E1E1" d="m185.644 302.32-10.03 5.8a1.503 1.503 0 0 0-.539 2.049 1.502 1.502 0 0 0 2.046.554l10.029-5.8c.71-.41.953-1.332.538-2.047a1.502 1.502 0 0 0-2.044-.556z"/></g><g style="display:block"><path fill="#222" d="M7.02.45v-10.84c0-.9-.48-1.3-1.24-1.3-.75 0-1.24.38-1.24 1.3v2.21H3.27v-2.21c0-.9-.48-1.3-1.23-1.3-.76 0-1.28.38-1.28 1.3v8.88C.76-.07 1.14.45 2.65.45h4.37zm3.96.62h2.51v-12.04c0-.77-.62-1.2-1.25-1.2-.65 0-1.26.41-1.26 1.2v3.91h-.69v-3.91c0-.77-.59-1.2-1.22-1.2-.65 0-1.23.41-1.23 1.2V1.07h2.45v-5.82h.69v5.82zM3.64-1.66c-.31 0-.37-.05-.37-.34v-3.96h1.27v4.3h-.9zm22.91 2.73c.58 0 .8-.42.8-.82 0-.42-.24-.86-.8-.86H18.6c-.22 0-.31-.12-.31-.26v-.05c0-.14.09-.26.31-.26h8.39v-2.26c0-1.11-.47-1.48-1.72-1.48h-9.03c-.53 0-.77.42-.77.82 0 .42.22.83.77.83h7.66c.18 0 .22.06.22.22v.37h-6.81c-1.28 0-2 .65-2 1.66v.17c0 1.02.72 1.92 2 1.92h9.24zM16.82-11.8c-1.61 0-1.96.38-1.96 1.87v2.47c0 1.5.35 1.88 1.96 1.88h5.33c.73 0 1-.57 1-1.07 0-.48-.27-1.03-1-1.03H18c-.26 0-.36-.06-.36-.33v-1.35c0-.24.1-.31.36-.31h3.61c.72 0 .99-.57.99-1.05 0-.5-.25-1.08-.99-1.08h-4.79zm7.27 6.43h2.8v-2.12h.43c.85 0 1.12-.62 1.12-1.2 0-.56-.26-1.19-1.12-1.19h-.43v-.89c0-.9-.67-1.4-1.4-1.4-.75 0-1.4.48-1.4 1.4v5.4z" aria-label="배달" font-family="Jalnan OTF" font-size="14" font-weight="400" style="display:inherit" transform="rotate(-30.04 580.795 -135.208)"/></g><g style="display:block"><path fill="#222" d="M10.15-1.62c.23 0 .34.13.34.34v2.35h2.85v-2.75c0-1.69-.33-2.17-2.09-2.17H2.52c-.79 0-1.22.45-1.22 1.11 0 .67.43 1.12 1.22 1.12h7.63zM8.84-4.67c.66 0 1.04-.53 1.04-1.04s-.32-.99-1.04-.99h-.48v-1.18c0-.83-.56-1.19-1.34-1.19-.77 0-1.34.36-1.34 1.19v1.18H4.53v-1.18c0-.83-.57-1.19-1.34-1.19-.78 0-1.34.36-1.34 1.19v1.18h-.26c-.72 0-1.04.48-1.04.99s.38 1.04 1.04 1.04h7.25zm1.58.27h2.85v-6.37c0-.9-.69-1.4-1.43-1.4s-1.42.48-1.42 1.4v6.37zM8.36-9.56c.66 0 1.04-.56 1.04-1.1 0-.53-.32-1.1-1.04-1.1H1.78c-.72 0-1.05.57-1.05 1.1 0 .54.38 1.1 1.05 1.1h6.58zm6.4 1.23c0 2.28 1.57 3.2 3.95 3.2 1.99 0 3.43-.66 3.79-2.29h1.96v2.4h2.81v-5.78c0-.89-.69-1.37-1.41-1.37-.74 0-1.4.47-1.4 1.37v1.18h-1.94c-.34-1.66-1.78-2.35-3.81-2.35-2.34 0-3.95.92-3.95 3.2v.44zm12.58 9.4v-4.3c0-.94-.61-1.35-1.4-1.35-.73 0-1.32.34-1.41 1.13h-6.31c-.1-.78-.67-1.13-1.39-1.13-.79 0-1.42.39-1.42 1.35v2.24c0 1.51.42 2.06 2 2.06h9.93zm-9.83-9.98c0-.71.49-1.06 1.2-1.06.7 0 1.2.35 1.2 1.06v.72c0 .72-.5 1.06-1.2 1.06-.71 0-1.2-.34-1.2-1.06v-.72zm1.1 8.11c-.31 0-.38-.05-.38-.36v-.49h6.29v.85h-5.91z" aria-label="픽업" font-family="Jalnan OTF" font-size="14" font-weight="400" style="display:inherit" transform="rotate(-30.04 613.798 -142.854)"/></g><g style="display:block"><path fill="#DDAB6B" d="M198.411 305.481c-.928 9.666-9.562 17.507-19.128 17.525-9.57.014-16.547-7.8-15.725-17.465.82-9.663 9.247-17.517 18.923-17.538 9.678-.017 16.857 7.812 15.93 17.478z"/><path fill="none" stroke="#C38D46" stroke-width="4" d="M198.411 305.481c-.928 9.666-9.562 17.507-19.128 17.525-9.57.014-16.547-7.8-15.725-17.465.82-9.663 9.247-17.517 18.923-17.538 9.678-.017 16.857 7.812 15.93 17.478z"/></g><g style="display:block"><path fill="#DDAB6B" d="M323.918 306.512c-.935-9.669-9.574-17.505-19.142-17.513-9.571-.007-16.542 7.812-15.709 17.474.826 9.665 9.254 17.513 18.931 17.526 9.684.011 16.855-7.822 15.92-17.487z"/><path fill="none" stroke="#C38D46" stroke-width="4" d="M323.918 306.512c-.935-9.669-9.574-17.505-19.142-17.513-9.571-.007-16.542 7.812-15.709 17.474.826 9.665 9.254 17.513 18.931 17.526 9.684.011 16.855-7.822 15.92-17.487z"/></g><g style="display:block"><path fill="#212121" d="M221.458 248.304c1.243 12.266-1.74 22.601-12.849 23.704-11.111 1.097-16.108-8.445-17.347-20.719-1.239-12.265 1.741-22.604 12.849-23.704 11.112-1.096 16.108 8.45 17.347 20.719z"/><path fill="#FFF" d="M213.11 257.72c-.636 2.373-2.6 3.914-4.38 3.437-1.782-.477-2.71-2.793-2.074-5.166.637-2.374 2.597-3.914 4.379-3.437 1.78.477 2.71 2.792 2.075 5.167zM208.948 243.356c0 4.453-2.715 8.073-6.055 8.073-3.348 0-6.057-3.62-6.057-8.073 0-4.457 2.709-8.073 6.057-8.073 3.34 0 6.055 3.616 6.055 8.073z"/></g><g style="display:block"><path fill="#212121" d="M299.48 251.223c-1.181 12.271-6.137 21.843-17.269 20.792-11.127-1.051-14.158-11.373-12.969-23.641 1.18-12.274 6.133-21.843 17.264-20.796 11.132 1.051 14.161 11.374 12.974 23.645z"/><path fill="#FFF" d="M291.36 257.654c-.586 2.19-2.398 3.611-4.041 3.171-1.645-.44-2.5-2.577-1.913-4.767.587-2.191 2.395-3.612 4.04-3.171 1.643.44 2.501 2.575 1.914 4.767zM288.197 243.356c0 4.643-2.832 8.417-6.315 8.417-3.488 0-6.313-3.774-6.313-8.417 0-4.647 2.825-8.417 6.313-8.417 3.483 0 6.315 3.77 6.315 8.417z"/></g></g></svg>