<svg xmlns="http://www.w3.org/2000/svg" width="491" height="311" style="width:100%;height:100%;transform:translate3d(0,0,0)"><defs><clipPath id="a"><path d="M0 0h491v311H0z"/></clipPath><clipPath id="b"><path d="M0 0h491v311H0z"/></clipPath></defs><g clip-path="url(#a)"><g style="display:block"><path fill="#D11" d="M336.357 291.404c5.7-11.14 17.021-21.197 17.021-39.212 0-18.019-11.32-28.076-17.021-39.215-3.845-11.908-2.954-27.025-15.692-39.763-12.741-12.742-27.857-11.847-39.764-15.696-11.143-5.7-21.196-17.018-39.214-17.018-18.018 0-28.076 11.323-39.218 17.02-11.904 3.848-27.021 2.956-39.757 15.694-12.743 12.742-11.848 27.859-15.697 39.769-5.7 11.135-17.015 21.192-17.015 39.209 0 18.017 11.32 28.075 17.02 39.218 3.844 11.906 2.952 27.019 15.693 39.754 12.737 12.742 27.853 11.847 39.761 15.696 11.141 5.699 21.196 17.018 39.213 17.018 18.018 0 28.071-11.319 39.214-17.018 11.906-3.849 27.023-2.954 39.764-15.694 12.738-12.741 11.845-27.855 15.692-39.762z"/><path fill="none" stroke="#B81A1A" stroke-width="4" d="M336.357 291.404c5.7-11.14 17.021-21.197 17.021-39.212 0-18.019-11.32-28.076-17.021-39.215-3.845-11.908-2.954-27.025-15.692-39.763-12.741-12.742-27.857-11.847-39.764-15.696-11.143-5.7-21.196-17.018-39.214-17.018-18.018 0-28.076 11.323-39.218 17.02-11.904 3.848-27.021 2.956-39.757 15.694-12.743 12.742-11.848 27.859-15.697 39.769-5.7 11.135-17.015 21.192-17.015 39.209 0 18.017 11.32 28.075 17.02 39.218 3.844 11.906 2.952 27.019 15.693 39.754 12.737 12.742 27.853 11.847 39.761 15.696 11.141 5.699 21.196 17.018 39.213 17.018 18.018 0 28.071-11.319 39.214-17.018 11.906-3.849 27.023-2.954 39.764-15.694 12.738-12.741 11.845-27.855 15.692-39.762z"/><path fill="#FFDA6E" d="M160.916 260.717c0-47.895 37.039-82.343 80.286-82.343 43.251 0 80.286 34.448 80.286 82.343 0 47.894-37.035 65.263-80.286 65.263-43.247 0-80.286-17.369-80.286-65.263z"/></g><g clip-path="url(#b)" style="display:block" transform="translate(0 1.874)"><path fill="#FFF69B" d="M3.702-3.048s-2.618-8.92-3.703-8.92-3.703 8.92-3.703 8.92S-10.473-.855-10.473 0s6.769 3.047 6.769 3.047 2.571 8.921 3.703 8.921c1.133 0 3.703-8.921 3.703-8.921S10.473.887 10.473 0c0-.888-6.771-3.048-6.771-3.048z" style="display:block" transform="matrix(1.06247 0 0 1.06247 282.507 115.839)"/><path fill="#FFF69B" d="M5.289-4.444s-3.74-13.009-5.29-13.009c-1.549 0-5.289 13.009-5.289 13.009S-14.96-1.246-14.96 0c0 1.247 9.67 4.445 9.67 4.445s3.673 13.008 5.289 13.008c1.618 0 5.29-13.008 5.29-13.008S14.96 1.295 14.96 0c0-1.295-9.671-4.444-9.671-4.444z" style="display:block" transform="translate(112.46 121.323) scale(1.01753)"/><path fill="#FFF69B" d="M5.817-4.825S1.704-18.949-.001-18.949c-1.705 0-5.819 14.124-5.819 14.124S-16.456-1.353-16.456 0c0 1.355 10.636 4.826 10.636 4.826s4.04 14.123 5.819 14.123S5.817 4.826 5.817 4.826 16.456 1.405 16.456 0c0-1.405-10.639-4.825-10.639-4.825z" style="display:block" transform="matrix(1.06247 0 0 1.06247 399.196 234.521)"/><path fill="#FFF69B" d="M7.052-6.476S2.066-25.432-.001-25.432c-2.066 0-7.052 18.956-7.052 18.956S-19.947-1.816-19.947.001c0 1.816 12.894 6.476 12.894 6.476s4.897 18.955 7.052 18.955c2.157 0 7.053-18.955 7.053-18.955S19.947 1.886 19.947.001c0-1.888-12.895-6.477-12.895-6.477z" style="display:block" transform="translate(307.939 80.433) scale(1.01753)"/><g style="display:block"><path fill="#FDFDFD" d="M485.832 116.455c-1.55-2.576-4.021-4.098-6.774-4.18a8.238 8.238 0 0 0-1.189.05c-3.191.37-5.91.513-8.303.44-7.798-.233-13.584-2.838-19.349-8.713-1.41-1.44-3.301-2.234-5.464-2.299-2.822-.085-5.83 1.152-7.846 3.23-7.954 8.2-26.922 22.534-66.906 30.699 1.045 3.06 1.827 7.093 1.498 12.08 0 0-2.685 13.582 6.91 21.713 1.177.996 2.508 1.784 3.894 2.46 3.424 1.668 12.633 6.838 16.506 15.586 26.682-3.968 65.19-17.507 87.46-60.796 1.611-3.128 1.44-7.162-.437-10.27z"/><path fill="#E73A37" d="M382.303 171.935c-1.385-.676-2.717-1.464-3.894-2.46-9.595-8.131-6.91-21.714-6.91-21.714.329-4.986-.454-9.018-1.5-12.079-3.128.638-6.37 1.244-9.76 1.803-3.621.593-6.714 2.892-8.271 6.147-1.574 3.287-1.418 6.979.429 10.135 4.538 7.759 8.08 13.076 12.56 19.81 1.233 1.853 2.536 3.812 3.952 5.956a20.53 20.53 0 0 0 6.948 6.508c.854.63 1.827 1.1 2.874 1.362a20.703 20.703 0 0 0 6.805 1.375c.675.02 1.353.008 2.036-.04 3.408-.23 7.188-.614 11.238-1.217-3.874-8.748-13.082-13.918-16.507-15.586z"/><path fill="none" stroke="#AF1212" stroke-width="3" d="M485.832 116.454c-1.55-2.576-4.021-4.098-6.774-4.18a8.241 8.241 0 0 0-1.189.052c-3.191.368-5.91.512-8.303.44-7.798-.234-13.584-2.84-19.349-8.714-1.41-1.44-3.301-2.235-5.464-2.3-2.822-.085-5.83 1.152-7.846 3.23-7.954 8.2-26.922 22.534-66.906 30.699-3.13.638-6.372 1.244-9.763 1.803-3.621.593-6.713 2.893-8.27 6.148-1.575 3.287-1.417 6.978.429 10.134 4.54 7.759 8.08 13.076 12.561 19.81 1.233 1.853 2.536 3.812 3.951 5.956a20.527 20.527 0 0 0 6.949 6.51c.854.63 1.826 1.1 2.873 1.361a20.713 20.713 0 0 0 6.806 1.375c.675.02 1.351.008 2.035-.04 3.408-.23 7.187-.614 11.237-1.217 26.682-3.968 65.19-17.507 87.46-60.796 1.611-3.128 1.44-7.163-.437-10.271z"/><path fill="#333" d="M415.094 150.37c1.946-2.037 2.194-4.781.314-6.888l-6.57-7.364c-1.503-1.681-4.363-.043-3.232 1.224l4.844 5.428c.409.457.23 1.096-.399 1.425-.624.328-1.46.225-1.872-.23l-5.395-6.045c-.723-.595-1.69-.284-2.204-.011-.017.008-.031.018-.046.027-.017.01-.036.015-.052.023-.514.27-1.244.852-.785 1.584l5.395 6.046c.41.457.233 1.094-.395 1.424-.625.332-1.465.229-1.874-.23l-4.844-5.427c-1.13-1.265-4.153.189-2.65 1.873l6.57 7.364c1.899 2.124 5.367 2.931 8.567 2.238l12.698 14.34c.839.94 2.56 1.158 3.842.484 1.284-.677 1.64-1.987.803-2.927l-12.715-14.358zM432.648 141.332c2.783-2.428 3.306-5.926.319-9.273-3.594-4.027-10.859-6.278-15.267-3.958-4.412 2.324-4.3 8.339-.705 12.365 2.877 3.222 7.103 4.16 10.936 3.232l13.66 14.33c.84.94 2.56 1.156 3.843.48 1.284-.676 1.643-1.986.803-2.923l-13.589-14.253z"/></g><g style="display:block"><path fill="#FDFDFD" d="m284.67 55.076-.572-.463c-3.845-3.089-11-8.84-12.363-21.626-.38-3.584-3.524-6.173-7.645-6.297-2.355-.07-4.66.73-6.324 2.193-8.67 7.633-25.635 20.427-48.11 27.121-.067 2.6-.288 5.736-.858 8.857a14.224 14.224 0 0 1-1 3.223c-1.635 3.669-5.664 15.226 3.349 24.512 0 0 6.012 6.91 9.877 15.534 18.899-4.672 52.494-16.426 65.923-42.787 1.785-3.506.851-7.729-2.276-10.267z"/><path fill="#E73A37" d="M207.799 68.083c.459-1.032.796-2.11.999-3.221.57-3.122.791-6.258.86-8.857-3.141.935-6.387 1.753-9.735 2.42-4.086.814-6.974 4.342-6.865 8.39.24 9.166 1.795 26.485 9.525 39.498 1.445 2.432 4.065 3.936 7.01 4.026a8.816 8.816 0 0 0 1.844-.139 159.092 159.092 0 0 0 9.587-2.07c-3.865-8.626-9.876-15.534-9.876-15.534-9.014-9.286-4.984-20.843-3.35-24.513z"/><path fill="none" stroke="#9C1714" stroke-width="3" d="m284.67 55.075-.572-.462c-3.845-3.089-11-8.84-12.363-21.626-.38-3.584-3.524-6.174-7.645-6.298-2.354-.07-4.66.73-6.324 2.193-8.67 7.633-25.635 20.427-48.11 27.121a107.63 107.63 0 0 1-9.732 2.42c-4.086.816-6.976 4.343-6.867 8.392.241 9.166 1.797 26.484 9.526 39.497 1.446 2.432 4.066 3.937 7.011 4.027a8.756 8.756 0 0 0 1.844-.139 158.51 158.51 0 0 0 9.586-2.07c18.899-4.672 52.495-16.427 65.923-42.788 1.785-3.506.851-7.729-2.276-10.267z"/><path fill="#333" d="M242.117 50.66c-3.226 1.582-3.806 7.01-1.827 11.052 1.59 3.238 4.337 4.594 7.026 4.192l7.06 15.355a1.897 1.897 0 0 0 2.535.875 1.902 1.902 0 0 0 .862-2.543l-7.023-15.278c2.143-1.865 2.867-4.976 1.218-8.336-1.979-4.04-6.625-6.9-9.85-5.318zM235.63 63.033a.927.927 0 0 1-.424 1.24.923.923 0 0 1-1.235-.423L231 57.784c-.426-.617-1.113-.447-1.488-.26-.013.006-.022.008-.032.016l-.039.016c-.377.187-.93.624-.7 1.336l2.972 6.066a.927.927 0 0 1-.423 1.237.927.927 0 0 1-1.237-.423l-2.669-5.444c-.623-1.27-2.818-.308-1.99 1.38l3.619 7.385a5.455 5.455 0 0 0 5.532 3.019l7.087 15.405a1.898 1.898 0 0 0 2.537.875c.936-.461 1.32-1.6.856-2.54l-7.095-15.427a5.462 5.462 0 0 0 .961-6.18l-3.621-7.385c-.827-1.689-2.932-.542-2.31.729l2.669 5.444z"/></g><g opacity=".4" style="display:block"><path fill="#FDFDFD" d="M195.768 23.871c-4.603-3.777-7.316-8.348-8.067-13.588-.57-4.003-3.796-6.992-7.666-7.108a7.786 7.786 0 0 0-1.47.096c-10.311 1.655-30.7 8.691-55.983 36.559 1.923 2.219 4.042 5.477 5.037 9.817 0 0 .471 10.234 15.28 13.037 0 0 4.209.165 13.535 5.496 6.43-9.065 18.972-23.6 37.018-30.525 2.73-1.049 4.64-3.412 5.112-6.323.459-2.858-.584-5.646-2.796-7.46z" opacity="1"/><path fill="#E73A37" d="M127.618 49.647c-.995-4.34-3.113-7.598-5.037-9.817a217.752 217.752 0 0 0-6.074 6.982 8.13 8.13 0 0 0-1.65 7.128c1.521 6.103 7.42 17.116 29.845 22.294a8.186 8.186 0 0 0 8.755-3.608 95.63 95.63 0 0 1 2.976-4.446c-9.326-5.33-13.535-5.496-13.535-5.496-14.809-2.803-15.28-13.037-15.28-13.037z" opacity="1"/><path fill="none" stroke="#9C1714" stroke-width="3" d="M195.768 23.87c-4.603-3.777-7.316-8.347-8.067-13.587-.57-4.003-3.796-6.992-7.666-7.108a7.786 7.786 0 0 0-1.47.096c-10.311 1.655-30.7 8.691-55.983 36.559a216.763 216.763 0 0 0-6.075 6.983 8.128 8.128 0 0 0-1.648 7.127c1.52 6.103 7.42 17.116 29.844 22.294a8.182 8.182 0 0 0 8.754-3.608 95.746 95.746 0 0 1 2.977-4.446c6.43-9.065 18.972-23.6 37.018-30.526 2.73-1.049 4.64-3.411 5.112-6.322.459-2.858-.584-5.647-2.796-7.462z" opacity="1"/><path fill="#221815" d="M151.44 20.814c-2.214 2.065-1.356 6.58 1.23 9.35 2.07 2.22 4.618 2.642 6.688 1.66l9.511 10.205a1.597 1.597 0 0 0 2.259.084 1.598 1.598 0 0 0 .072-2.259l-9.46-10.151c1.27-2.028 1.093-4.712-1.058-7.014-2.585-2.77-7.03-3.939-9.243-1.875zM149.237 32.37a.782.782 0 0 1-.04 1.1.782.782 0 0 1-1.1-.04l-3.88-4.156c-.493-.396-1.005-.09-1.263.149-.008.007-.014.017-.023.025l-.023.023c-.26.24-.6.729-.243 1.247l3.881 4.16a.776.776 0 0 1-.037 1.1.782.782 0 0 1-1.1-.037l-3.483-3.735c-.812-.873-2.35.443-1.268 1.6l4.725 5.066a4.596 4.596 0 0 0 5.198 1.076l9.543 10.24a1.602 1.602 0 0 0 2.258.084c.644-.6.677-1.612.074-2.257L152.9 37.762a4.601 4.601 0 0 0-.739-5.215l-4.727-5.064c-1.078-1.158-2.495.283-1.682 1.153l3.485 3.734z" opacity="1"/></g><g style="display:block"><path fill="#FDFDFD" d="M107.786 198.617c-4.742-3.318-9.442-8.038-8.358-17.915.208-1.87-.38-3.658-1.699-5.176-1.753-2.019-4.65-3.325-7.56-3.413a9.884 9.884 0 0 0-.625 0c-2.042.066-4.184.066-6.37 0-12.436-.373-31.338-2.984-53.83-12.717-1.4 3.077-3.138 6.22-5.146 8.505 0 0-11.559 15.622-1.025 34.124 0 0 4.61 5.938 6.68 15.506 8.597 3.661 19.065 6.53 31.137 6.892 14.607.439 29.57-2.885 44.477-9.875 3.183-1.496 5.442-4.756 5.748-8.309.27-3.126-.98-5.906-3.43-7.622z"/><path fill="#E73A37" d="M25.496 166.26c1.466-2.038 2.76-4.471 3.848-6.864a181.413 181.413 0 0 1-8.865-4.123 9.757 9.757 0 0 0-4.093-1.039c-5.077-.152-9.455 3.676-9.965 8.715l-2.983 29.483a14.01 14.01 0 0 0 5.13 12.336c4.55 3.684 11.771 8.71 21.286 12.763-2.07-9.568-6.68-15.507-6.68-15.507-4.978-8.743-5.023-16.842-3.685-22.956 1.019-4.655 3.223-8.939 6.007-12.808z"/><path fill="#221815" d="M66.13 178.038c-3.85-.412-7.503 4.202-8.018 9.024-.414 3.863 1.315 6.683 3.998 7.863l-2.03 17.557a2.046 2.046 0 0 0 1.812 2.254 2.048 2.048 0 0 0 2.248-1.821l2.017-17.466c3.028-.465 5.476-2.885 5.904-6.897.518-4.821-2.077-10.104-5.93-10.514zM53.102 185.587a.998.998 0 0 1-1.982-.215l.773-7.238c-.031-.807-.753-1.046-1.204-1.094l-.041-.001a.337.337 0 0 1-.044-.005c-.448-.05-1.205.032-1.406.812l-.776 7.241a.996.996 0 0 1-1.981-.212l.694-6.5c.164-1.518-2.394-1.9-2.608.115l-.943 8.815a5.882 5.882 0 0 0 3.312 5.931l-2.036 17.616a2.047 2.047 0 0 0 1.808 2.255 2.047 2.047 0 0 0 2.248-1.821l2.038-17.639a5.886 5.886 0 0 0 4.428-5.078l.94-8.818c.217-2.016-2.362-2.182-2.525-.665l-.695 6.501z"/><path fill="none" stroke="#9C1714" stroke-width="3" d="M107.785 198.617c-4.742-3.318-9.441-8.038-8.357-17.915.208-1.87-.38-3.658-1.699-5.176-1.753-2.019-4.651-3.325-7.562-3.413a9.852 9.852 0 0 0-.623 0c-2.042.066-4.184.066-6.37 0-12.436-.373-31.34-2.984-53.831-12.717a181.354 181.354 0 0 1-8.864-4.122 9.742 9.742 0 0 0-4.093-1.039c-5.077-.152-9.454 3.676-9.964 8.715l-2.984 29.483a14.005 14.005 0 0 0 5.13 12.335c4.55 3.684 11.772 8.71 21.286 12.763 8.597 3.661 19.063 6.53 31.135 6.892 14.607.439 29.57-2.885 44.478-9.875 3.183-1.496 5.442-4.756 5.748-8.309.27-3.126-.982-5.906-3.43-7.622z"/></g></g><g style="display:block"><path fill="#FFF" d="M164.31 324.815c-3.602 3.018-9.039 2.518-12.083-1.112l-46.521-55.487c-3.044-3.63-2.588-9.07 1.013-12.09l29.426-24.673c3.601-3.019 9.038-2.52 12.082 1.111l46.522 55.486c3.044 3.631 2.588 9.072-1.013 12.092l-29.426 24.673z"/><path fill="none" stroke="#B76B6B" stroke-width="2.2" d="M164.31 324.815c-3.6 3.018-9.038 2.518-12.082-1.112l-46.521-55.487c-3.044-3.63-2.59-9.07 1.012-12.09l29.427-24.674c3.601-3.018 9.038-2.519 12.082 1.112l46.522 55.485c3.044 3.632 2.587 9.073-1.014 12.093l-29.425 24.673z"/><path fill="#F33" d="m137.988 236.359-26.761 22.438c-2.417 2.025-2.723 5.676-.68 8.112l39.174 46.722c2.042 2.437 5.69 2.773 8.107.746l26.761-22.438c2.417-2.026 2.723-5.677.68-8.113l-39.174-46.72c-2.042-2.438-5.691-2.773-8.107-.747z"/><path fill="#E1E1E1" d="m178.084 302.755-8.878 7.443a1.502 1.502 0 0 0-.178 2.112c.531.634 1.482.72 2.11.193l8.878-7.443a1.501 1.501 0 0 0 .177-2.11 1.503 1.503 0 0 0-2.11-.195z"/></g><g style="display:block"><path fill="#FFF" d="M9.9-3.16c.18 0 .22.06.22.21v.36H3.26c-1.26 0-1.95.64-1.95 1.63v.17c0 .99.69 1.86 1.95 1.86h9.3c.57 0 .79-.42.79-.79 0-.42-.24-.84-.79-.84H4.6c-.22 0-.31-.12-.31-.26v-.04c0-.14.09-.27.31-.27h8.39v-2.2c0-1.08-.44-1.45-1.67-1.45H2.21c-.5 0-.74.42-.74.8 0 .41.22.82.74.82H9.9zM4.75-5.17c1.99 0 3.72-.91 3.72-2.78v-.52c0-.29-.08-.54-.22-.78.67-.01.98-.44.98-.94 0-.51-.32-.98-1.02-.98H6.16c-.06-.73-.6-1.18-1.41-1.18-.8 0-1.35.44-1.41 1.18H1.3c-.69 0-1.05.47-1.05.98 0 .49.34.93 1 .94-.15.24-.22.49-.22.78v.52c0 1.87 1.73 2.78 3.72 2.78zm5.34.04h2.8v-2.34h.43c.85 0 1.12-.62 1.12-1.2 0-.56-.26-1.2-1.12-1.2h-.43v-.9c0-.9-.67-1.4-1.4-1.4-.75 0-1.4.48-1.4 1.4v5.64zM4.75-7.05c-.58 0-1.15-.3-1.15-.96v-.49c0-.66.57-.96 1.15-.96s1.16.3 1.16.96v.49c0 .66-.58.96-1.16.96zm21.7 8.12c.85 0 1.18-.52 1.18-1.1 0-.56-.32-1.08-1.18-1.08h-7.66c-.31 0-.38-.05-.38-.36v-.96c0-.94-.62-1.39-1.41-1.39-.79 0-1.45.44-1.45 1.39v1.44c0 1.51.42 2.06 2 2.06h8.9zm-7.66-5.45c2.4 0 4.04-1.03 4.04-3.32v-.94c0-2.29-1.64-3.33-4.04-3.33-2.39 0-4.03 1.04-4.03 3.33v.94c0 2.29 1.64 3.32 4.03 3.32zm5.63 2.18h2.85v-8.57c0-.9-.69-1.4-1.43-1.4s-1.42.48-1.42 1.4v8.57zm-5.63-4.26c-.74 0-1.27-.34-1.27-1.13v-1.17c0-.77.53-1.14 1.27-1.14.75 0 1.27.37 1.27 1.14v1.17c0 .79-.52 1.13-1.27 1.13z" aria-label="할인" font-family="Jalnan OTF" font-size="14" font-weight="400" style="display:inherit" transform="rotate(-39.978 454.506 -43.208)"/></g><g style="display:block"><path fill="#FFF" d="M8.4.51c.81 0 1.06-.62 1.06-1.17 0-.54-.24-1.19-1.06-1.19H4.07c-.25 0-.36-.08-.36-.41V-4.5h3.78c.8 0 1.12-.58 1.12-1.15 0-.6-.31-1.17-1.12-1.17H3.71v-2.06c0-.33.11-.41.36-.41h3.76c.8 0 1.05-.65 1.05-1.2 0-.54-.24-1.18-1.05-1.18H3.06c-1.83 0-2.17.42-2.17 2.18v7.8c0 1.76.34 2.2 2.17 2.2H8.4zm4.87.56v-11.84c0-.92-.67-1.4-1.41-1.4-.75 0-1.41.48-1.41 1.4V1.07h2.82zm2.37-7.09c-.64-.01-1.03.38-1.08.96-.04.65.38 1.04 1.01 1.13.15.02.33.02.47.02 2.25-.01 4.11-.97 4.8-2.98h1.15v2.58h2.43v-6.66c0-.77-.58-1.2-1.21-1.2-.65 0-1.22.41-1.22 1.2v1.86h-.86v-.9c0-1.16-.4-1.72-1.8-1.72h-3.57c-.72 0-1 .56-1 1.04 0 .5.3 1.09 1 1.09h2.79c.2 0 .29.07.29.27v.45h-3.2c-.72 0-1.01.53-1.01 1.01s.3 1 1.01 1l1.87-.01c.28 0 .56-.06.83-.16-.52.71-1.42 1.05-2.7 1.02zm7.26 3.24c0-.84-.54-1.2-1.27-1.24-.74-.04-1.21.26-1.61 1.14-.56 1.29-2.41 1.79-3.68 1.74-.65-.03-1.17.35-1.21 1.04-.04.72.48 1.23 1.15 1.3 1.72.18 4.21-.55 5.59-1.86 1.52-.19 2.83.52 3.17 1.73h2.89c-.39-2.85-2.85-3.89-5.03-3.81v-.04zm2.13-1.04h2.46v-7.15c0-.77-.6-1.2-1.24-1.2-.65 0-1.22.41-1.22 1.2v7.15z" aria-label="티켓" font-family="Jalnan OTF" font-size="14" font-weight="400" style="display:inherit" transform="rotate(-39.978 479.057 -51.87)"/></g><g style="display:block"><path fill="#FFF" d="M255.578 257.458c-5.863 0-10.929 3.464-13.404 8.506-2.474-5.042-7.538-8.506-13.402-8.506-8.296 0-15.022 6.921-15.022 15.459 0 8.539 6.726 15.457 15.022 15.457 5.864 0 10.928-3.464 13.402-8.507 2.475 5.043 7.541 8.507 13.404 8.507 8.294 0 15.021-6.918 15.021-15.457 0-8.538-6.727-15.459-15.021-15.459z"/><path fill="#D11" d="M253.644 259.604c0 7.635-5.582 12.813-12.466 12.813-6.887 0-12.468-5.178-12.468-12.813 0-7.635 5.581-18.103 12.468-18.103 6.884 0 12.466 10.468 12.466 18.103z"/><path fill="#221F1F" d="M250.651 262.924c0 2.772-4.018 6.502-8.975 6.502-4.959 0-8.977-3.73-8.977-6.502 0-2.771 4.018-5.466 8.977-5.466 4.957 0 8.975 2.695 8.975 5.466z"/></g><g style="display:block"><path fill="#FFDA6E" d="M200.027 307.41c1.398 10.555-7.957 19.81-21.415 20.94-13.462 1.132-24.92-5.967-25.19-16.288-.275-10.318 9.775-20.094 22.096-21.462 12.33-1.362 23.114 6.257 24.51 16.81z"/><path fill="none" stroke="#DAAA4D" stroke-width="3.5" d="M200.027 307.41c1.398 10.555-7.957 19.81-21.415 20.94-13.462 1.132-24.92-5.967-25.19-16.288-.275-10.318 9.775-20.094 22.096-21.462 12.33-1.362 23.114 6.257 24.51 16.81z"/></g><g style="display:block"><path fill="#FFDA6E" d="M289.766 309.105c.454 10.638 11.269 18.132 24.722 16.914 13.448-1.218 23.505-10.197 21.985-20.408-1.519-10.208-13.111-18.098-25.483-17.308-12.379.792-21.676 10.167-21.224 20.802z"/><path fill="none" stroke="#DAAA4D" stroke-width="3.5" d="M289.766 309.105c.454 10.638 11.269 18.132 24.722 16.914 13.448-1.218 23.505-10.197 21.985-20.408-1.519-10.208-13.111-18.098-25.483-17.308-12.379.792-21.676 10.167-21.224 20.802z"/></g><path fill="#221F1F" d="M5.984.001A5.982 5.982 0 0 1 .001 5.984 5.983 5.983 0 0 1-5.984.001 5.983 5.983 0 0 1 .001-5.984 5.983 5.983 0 0 1 5.984.001z" style="display:block" transform="translate(205.484 250.234)"/><path fill="#221F1F" d="M5.984.001A5.982 5.982 0 0 1 .001 5.984 5.983 5.983 0 0 1-5.984.001 5.983 5.983 0 0 1 .001-5.984 5.983 5.983 0 0 1 5.984.001z" style="display:block" transform="translate(277.484 250.484)"/></g></svg>