<svg id="visual" viewBox="0 0 900 150" width="900" height="150" xmlns="http://www.w3.org/2000/svg" xmlns:xlink="http://www.w3.org/1999/xlink" version="1.1"><path d="M0 37L15 43.5C30 50 60 63 90 63.8C120 64.7 150 53.3 180 47C210 40.7 240 39.3 270 34.8C300 30.3 330 22.7 360 22.2C390 21.7 420 28.3 450 29.2C480 30 510 25 540 34.5C570 44 600 68 630 70.7C660 73.3 690 54.7 720 41.7C750 28.7 780 21.3 810 25.7C840 30 870 46 885 54L900 62L900 151L885 151C870 151 840 151 810 151C780 151 750 151 720 151C690 151 660 151 630 151C600 151 570 151 540 151C510 151 480 151 450 151C420 151 390 151 360 151C330 151 300 151 270 151C240 151 210 151 180 151C150 151 120 151 90 151C60 151 30 151 15 151L0 151Z" fill="#049dbf"></path><path d="M0 51L15 49.2C30 47.3 60 43.7 90 42.3C120 41 150 42 180 51.8C210 61.7 240 80.3 270 89.7C300 99 330 99 360 94.5C390 90 420 81 450 74.2C480 67.3 510 62.7 540 58.2C570 53.7 600 49.3 630 49.5C660 49.7 690 54.3 720 59.3C750 64.3 780 69.7 810 79.8C840 90 870 105 885 112.5L900 120L900 151L885 151C870 151 840 151 810 151C780 151 750 151 720 151C690 151 660 151 630 151C600 151 570 151 540 151C510 151 480 151 450 151C420 151 390 151 360 151C330 151 300 151 270 151C240 151 210 151 180 151C150 151 120 151 90 151C60 151 30 151 15 151L0 151Z" fill="#00799e"></path><path d="M0 134L15 125.2C30 116.3 60 98.7 90 87.5C120 76.3 150 71.7 180 70C210 68.3 240 69.7 270 72.3C300 75 330 79 360 88C390 97 420 111 450 117.7C480 124.3 510 123.7 540 114.8C570 106 600 89 630 85.8C660 82.7 690 93.3 720 99.8C750 106.3 780 108.7 810 106.7C840 104.7 870 98.3 885 95.2L900 92L900 151L885 151C870 151 840 151 810 151C780 151 750 151 720 151C690 151 660 151 630 151C600 151 570 151 540 151C510 151 480 151 450 151C420 151 390 151 360 151C330 151 300 151 270 151C240 151 210 151 180 151C150 151 120 151 90 151C60 151 30 151 15 151L0 151Z" fill="#01577c"></path><path d="M0 131L15 128.8C30 126.7 60 122.3 90 123.2C120 124 150 130 180 126.7C210 123.3 240 110.7 270 106.2C300 101.7 330 105.3 360 108.7C390 112 420 115 450 115.3C480 115.7 510 113.3 540 118.3C570 123.3 600 135.7 630 133C660 130.3 690 112.7 720 106.5C750 100.3 780 105.7 810 106.8C840 108 870 105 885 103.5L900 102L900 151L885 151C870 151 840 151 810 151C780 151 750 151 720 151C690 151 660 151 630 151C600 151 570 151 540 151C510 151 480 151 450 151C420 151 390 151 360 151C330 151 300 151 270 151C240 151 210 151 180 151C150 151 120 151 90 151C60 151 30 151 15 151L0 151Z" fill="#023859"></path></svg>